<svg width="24" height="36" viewBox="0 0 24 36" fill="none" xmlns="http://www.w3.org/2000/svg">
    <path fill-rule="evenodd" clip-rule="evenodd"
          d="M5.29289 6.29289C5.68342 5.90237 6.31658 5.90237 6.70711 6.29289L12 11.5858L17.2929 6.2929C17.6834 5.90237 18.3166 5.90237 18.7071 6.2929C19.0976 6.68342 19.0976 7.31658 18.7071 7.70711L12.7071 13.7071C12.3166 14.0976 11.6834 14.0976 11.2929 13.7071L5.29289 7.70711C4.90237 7.31658 4.90237 6.68342 5.29289 6.29289ZM5.29289 12.2929C5.68342 11.9024 6.31658 11.9024 6.70711 12.2929L12 17.5858L17.2929 12.2929C17.6834 11.9024 18.3166 11.9024 18.7071 12.2929C19.0976 12.6834 19.0976 13.3166 18.7071 13.7071L12.7071 19.7071C12.3166 20.0976 11.6834 20.0976 11.2929 19.7071L5.29289 13.7071C4.90237 13.3166 4.90237 12.6834 5.29289 12.2929Z"
          fill="white"/>
    <path fill-rule="evenodd" clip-rule="evenodd"
          d="M5.29289 18.2929C5.68342 17.9024 6.31658 17.9024 6.70711 18.2929L12 23.5858L17.2929 18.2929C17.6834 17.9024 18.3166 17.9024 18.7071 18.2929C19.0976 18.6834 19.0976 19.3166 18.7071 19.7071L12.7071 25.7071C12.3166 26.0976 11.6834 26.0976 11.2929 25.7071L5.29289 19.7071C4.90237 19.3166 4.90237 18.6834 5.29289 18.2929ZM5.29289 24.2929C5.68342 23.9024 6.31658 23.9024 6.70711 24.2929L12 29.5858L17.2929 24.2929C17.6834 23.9024 18.3166 23.9024 18.7071 24.2929C19.0976 24.6834 19.0976 25.3166 18.7071 25.7071L12.7071 31.7071C12.3166 32.0976 11.6834 32.0976 11.2929 31.7071L5.29289 25.7071C4.90237 25.3166 4.90237 24.6834 5.29289 24.2929Z"
          fill="white"/>
</svg>
