<svg width="10" height="11" viewBox="0 0 10 11" fill="none" xmlns="http://www.w3.org/2000/svg">
    <path fill-rule="evenodd" clip-rule="evenodd"
          d="M6.0094 0.545751C6.19614 0.627343 6.31579 0.804742 6.31579 1.00001V9.99999C6.31579 10.1953 6.19614 10.3727 6.0094 10.4542C5.82266 10.5358 5.60301 10.5067 5.44695 10.3796L1.91057 7.5H0.526316C0.23564 7.5 0 7.27614 0 7V4C0 3.72386 0.23564 3.5 0.526316 3.5H1.91057L5.44695 0.620379C5.60301 0.493302 5.82266 0.464158 6.0094 0.545751ZM5.26316 2.08712L2.44778 4.37963C2.35239 4.45731 2.2309 4.5 2.10526 4.5H1.05263V6.5H2.10526C2.2309 6.5 2.35239 6.54269 2.44778 6.62037L5.26316 8.91288V2.08712ZM8.04889 2.14645C8.25443 1.95119 8.58767 1.95119 8.79321 2.14645L8.79399 2.14719L8.79486 2.14802L8.7969 2.14998L8.80209 2.15504C8.80605 2.15892 8.81099 2.16382 8.81684 2.16975C8.82854 2.18161 8.8439 2.19756 8.86238 2.21763C8.89932 2.25774 8.94883 2.31435 9.00658 2.3875C9.12202 2.53374 9.27088 2.74664 9.41812 3.0264C9.71346 3.58754 10 4.41362 10 5.5C10 6.58638 9.71346 7.41246 9.41812 7.9736C9.27088 8.25336 9.12202 8.46626 9.00658 8.6125C8.94883 8.68564 8.89932 8.74226 8.86238 8.78237C8.8439 8.80244 8.82854 8.81839 8.81684 8.83025C8.81099 8.83618 8.80605 8.84108 8.80209 8.84496L8.7969 8.85002L8.79486 8.85198L8.79399 8.85281L8.79321 8.85355C8.58767 9.04881 8.25443 9.04881 8.04889 8.85355C7.84423 8.65912 7.84336 8.34442 8.04626 8.14896L8.04891 8.14631C8.05263 8.14254 8.05989 8.13506 8.07019 8.12387C8.09081 8.10148 8.12354 8.06435 8.16447 8.0125C8.2464 7.90873 8.3607 7.74664 8.47662 7.52639C8.70759 7.08753 8.94737 6.41362 8.94737 5.5C8.94737 4.58638 8.70759 3.91246 8.47662 3.47361C8.3607 3.25336 8.2464 3.09127 8.16447 2.9875C8.12354 2.93565 8.09081 2.89852 8.07019 2.87613C8.05989 2.86494 8.05263 2.85746 8.04891 2.85369L8.04626 2.85104C7.84336 2.65558 7.84423 2.34087 8.04889 2.14645ZM6.99626 3.64645C7.2018 3.45119 7.53504 3.45119 7.74058 3.64645L7.74133 3.64716L7.74214 3.64793L7.74388 3.64961L7.74795 3.65357L7.7583 3.66389C7.76614 3.67184 7.77585 3.68194 7.78713 3.69419C7.80968 3.71868 7.83863 3.75185 7.87171 3.79375C7.93781 3.87748 8.02088 3.99664 8.10233 4.15139C8.26609 4.46254 8.42105 4.91362 8.42105 5.5C8.42105 6.08638 8.26609 6.53746 8.10233 6.8486C8.02088 7.00336 7.93781 7.12252 7.87171 7.20625C7.83863 7.24815 7.80968 7.28132 7.78713 7.30581C7.77585 7.31806 7.76614 7.32816 7.7583 7.33611L7.74795 7.34643L7.74388 7.35039L7.74214 7.35207L7.74133 7.35283C7.5358 7.5481 7.2018 7.54881 6.99626 7.35355C6.79248 7.15996 6.79074 6.84713 6.99101 6.6515C6.99101 6.6515 6.99307 6.64934 6.99494 6.64731C7.00117 6.64055 7.01334 6.62685 7.0296 6.60625C7.06219 6.56498 7.1107 6.49664 7.16083 6.40139C7.26023 6.21254 7.36842 5.91362 7.36842 5.5C7.36842 5.08638 7.26023 4.78746 7.16083 4.59861C7.1107 4.50336 7.06219 4.43502 7.0296 4.39375C7.01334 4.37315 7.00117 4.35945 6.99494 4.35269C6.99307 4.35065 6.99101 4.3485 6.99101 4.3485C6.79074 4.15286 6.79248 3.84003 6.99626 3.64645Z"
          fill="white"/>
</svg>
