<svg width="51" height="50" viewBox="0 0 51 50" fill="none" xmlns="http://www.w3.org/2000/svg">
    <g clip-path="url(#clip0_645_5615)">
        <path d="M25.3158 50C39.0795 50 50.2371 38.8071 50.2371 25C50.2371 11.1929 39.0795 0 25.3158 0C11.5522 0 0.394531 11.1929 0.394531 25C0.394531 38.8071 11.5522 50 25.3158 50Z"
              fill="#F0F0F0"/>
        <path d="M25.3159 0C15.4356 0 6.89845 5.76807 2.86743 14.1305H47.7642C43.7333 5.76807 35.1961 0 25.3159 0V0Z"
              fill="#338AF3"/>
        <path d="M25.3159 50.0001C35.1961 50.0001 43.7333 44.232 47.7643 35.8696H2.86743C6.89845 44.232 15.4355 50.0001 25.3159 50.0001Z"
              fill="#338AF3"/>
        <path d="M32.7645 25.0002L29.7209 26.4364L31.3416 29.3934L28.0366 28.7591L27.6178 32.1083L25.3158 29.645L23.0137 32.1083L22.595 28.7591L19.29 29.3933L20.9107 26.4363L17.8672 25.0002L20.9108 23.564L19.29 20.6071L22.5949 21.2413L23.0138 17.8921L25.3158 20.3554L27.6179 17.8921L28.0366 21.2413L31.3417 20.6071L29.721 23.5641L32.7645 25.0002Z"
              fill="#FFDA44"/>
    </g>
    <defs>
        <clipPath id="clip0_645_5615">
            <rect width="49.8426" height="50" fill="white" transform="translate(0.394531)"/>
        </clipPath>
    </defs>
</svg>
