<svg width="59" height="58" viewBox="0 0 59 58" fill="none" xmlns="http://www.w3.org/2000/svg">
    <g clip-path="url(#clip0_645_5621)" filter="url(#filter0_d_645_5621)">
        <path d="M38.4805 1.55498C35.7807 0.550098 32.8606 0 29.8122 0C26.7639 0 23.8438 0.550098 21.144 1.55498L18.9769 25L21.144 48.445C23.8438 49.45 26.7639 50 29.8122 50C32.8606 50 35.7807 49.45 38.4805 48.445L40.6476 25L38.4805 1.55498Z"
              fill="#FFDA44"/>
        <path d="M54.7335 25.0001C54.7335 14.2511 47.9705 5.0874 38.4805 1.55518V48.4453C47.9705 44.9128 54.7335 35.7493 54.7335 25.0001V25.0001Z"
              fill="#D80027"/>
        <path d="M4.89087 25.0001C4.89087 35.7493 11.6539 44.9128 21.1439 48.4452V1.55518C11.6539 5.0874 4.89087 14.2511 4.89087 25.0001V25.0001Z"
              fill="black"/>
    </g>
    <defs>
        <filter id="filter0_d_645_5621" x="0.890869" y="0" width="57.8425" height="58" filterUnits="userSpaceOnUse"
                color-interpolation-filters="sRGB">
            <feFlood flood-opacity="0" result="BackgroundImageFix"/>
            <feColorMatrix in="SourceAlpha" type="matrix" values="0 0 0 0 0 0 0 0 0 0 0 0 0 0 0 0 0 0 127 0"
                           result="hardAlpha"/>
            <feOffset dy="4"/>
            <feGaussianBlur stdDeviation="2"/>
            <feComposite in2="hardAlpha" operator="out"/>
            <feColorMatrix type="matrix" values="0 0 0 0 0 0 0 0 0 0 0 0 0 0 0 0 0 0 0.25 0"/>
            <feBlend mode="normal" in2="BackgroundImageFix" result="effect1_dropShadow_645_5621"/>
            <feBlend mode="normal" in="SourceGraphic" in2="effect1_dropShadow_645_5621" result="shape"/>
        </filter>
        <clipPath id="clip0_645_5621">
            <rect width="49.8426" height="50" fill="white" transform="translate(4.89087)"/>
        </clipPath>
    </defs>
</svg>
