<svg width="27" height="28" viewBox="0 0 27 28" fill="none" xmlns="http://www.w3.org/2000/svg">
    <g filter="url(#filter0_d_2251_9883)">
        <path fill-rule="evenodd" clip-rule="evenodd"
              d="M16.0374 3.47025C16.0376 3.47025 16.0364 3.47271 16.0332 3.47762C16.0356 3.47271 16.0372 3.47025 16.0374 3.47025ZM15.861 3.65664C15.6367 3.46365 15.2392 3.21521 14.6212 2.96801C13.2825 2.43254 11.296 2.05664 9 2.05664C6.70402 2.05664 4.7175 2.43254 3.37882 2.96801C2.76081 3.21522 2.36329 3.46365 2.13903 3.65664C2.36329 3.84963 2.76081 4.09807 3.37882 4.34527C4.7175 4.88074 6.70402 5.25664 9 5.25664C11.296 5.25664 13.2825 4.88074 14.6212 4.34527C15.2392 4.09807 15.6367 3.84963 15.861 3.65664ZM1.96261 3.47025C1.96279 3.47025 1.96439 3.4727 1.96682 3.47761C1.96363 3.47271 1.96242 3.47025 1.96261 3.47025ZM1.96261 3.84303C1.96242 3.84303 1.96363 3.84058 1.96682 3.83567C1.96439 3.84058 1.96279 3.84303 1.96261 3.84303ZM16.0332 3.83566C16.0364 3.84057 16.0376 3.84303 16.0374 3.84303C16.0372 3.84303 16.0356 3.84058 16.0332 3.83566ZM9 7.25664C11.8273 7.25664 14.35 6.73517 16 5.91957V7.05664C16 7.08217 15.9898 7.22622 15.7079 7.47612C15.4272 7.72498 14.964 7.99479 14.3057 8.24163C12.9966 8.73255 11.121 9.05664 9 9.05664C6.87903 9.05664 5.0034 8.73255 3.69427 8.24163C3.03602 7.99479 2.57279 7.72498 2.29209 7.47612C2.01022 7.22622 2 7.08217 2 7.05664V5.91957C3.64996 6.73517 6.17273 7.25664 9 7.25664ZM15.008 10.1143C15.3574 9.98326 15.6909 9.83645 16 9.67283V10.6812H18V8.05664V7.05664V4.05664H17.9451C17.9814 3.92531 18 3.79184 18 3.65664C18 1.66842 13.9706 0.0566406 9 0.0566406C4.02944 0.0566406 0 1.66842 0 3.65664C0 3.79184 0.0186333 3.92531 0.0549288 4.05664H0V7.05664V8.05664V10.6812H2V9.67283C2.3091 9.83645 2.64262 9.98326 2.99202 10.1143C4.57833 10.7092 6.70269 11.0566 9 11.0566C11.2973 11.0566 13.4217 10.7092 15.008 10.1143ZM9 12.9438C6.88755 12.9438 5.02154 12.5928 3.72073 12.0623C3.06782 11.7961 2.60574 11.5043 2.32273 11.2315C2.04256 10.9614 2 10.7757 2 10.6816H0C0 10.8101 0.0102695 10.9351 0.0296751 11.0566H0V14.6812H2V13.4498C2.30115 13.6211 2.62555 13.7756 2.96556 13.9143C4.56018 14.5645 6.69417 14.9438 9 14.9438C11.3058 14.9438 13.4398 14.5645 15.0344 13.9143C15.3745 13.7756 15.6989 13.6211 16 13.4498V14.6812H18V11.0566H17.9703C17.9897 10.9351 18 10.8101 18 10.6816H16C16 10.7757 15.9574 10.9614 15.6773 11.2315C15.3943 11.5043 14.9322 11.7961 14.2793 12.0623C12.9785 12.5928 11.1125 12.9438 9 12.9438ZM3.72073 16.0623C5.02154 16.5928 6.88755 16.9438 9 16.9438C11.1125 16.9438 12.9785 16.5928 14.2793 16.0623C14.9322 15.7961 15.3943 15.5043 15.6773 15.2315C15.9574 14.9614 16 14.7757 16 14.6816H18C18 15.4884 17.5948 16.1609 17.0654 16.6713C16.5387 17.1791 15.8292 17.5902 15.0344 17.9143C13.4398 18.5645 11.3058 18.9438 9 18.9438C6.69417 18.9438 4.56018 18.5645 2.96556 17.9143C2.17075 17.5902 1.46126 17.1791 0.934625 16.6713C0.40515 16.1609 0 15.4884 0 14.6816H2C2 14.7757 2.04256 14.9614 2.32273 15.2315C2.60574 15.5043 3.06782 15.7961 3.72073 16.0623Z"
              fill="black"/>
    </g>
    <defs>
        <filter id="filter0_d_2251_9883" x="0" y="0.0566406" width="27" height="27.8867" filterUnits="userSpaceOnUse"
                color-interpolation-filters="sRGB">
            <feFlood flood-opacity="0" result="BackgroundImageFix"/>
            <feColorMatrix in="SourceAlpha" type="matrix" values="0 0 0 0 0 0 0 0 0 0 0 0 0 0 0 0 0 0 127 0"
                           result="hardAlpha"/>
            <feOffset dx="5" dy="5"/>
            <feGaussianBlur stdDeviation="2"/>
            <feComposite in2="hardAlpha" operator="out"/>
            <feColorMatrix type="matrix" values="0 0 0 0 0 0 0 0 0 0 0 0 0 0 0 0 0 0 0.25 0"/>
            <feBlend mode="normal" in2="BackgroundImageFix" result="effect1_dropShadow_2251_9883"/>
            <feBlend mode="normal" in="SourceGraphic" in2="effect1_dropShadow_2251_9883" result="shape"/>
        </filter>
    </defs>
</svg>
