<svg width="28" height="28" viewBox="0 0 28 28" fill="none" xmlns="http://www.w3.org/2000/svg">
    <g filter="url(#filter0_d_2251_14898)">
        <path fill-rule="evenodd" clip-rule="evenodd"
              d="M16.5 9.5C16.5 13.366 13.366 16.5 9.5 16.5C5.63401 16.5 2.5 13.366 2.5 9.5C2.5 5.63401 5.63401 2.5 9.5 2.5C13.366 2.5 16.5 5.63401 16.5 9.5ZM18.5 9.5C18.5 14.4706 14.4706 18.5 9.5 18.5C4.52944 18.5 0.5 14.4706 0.5 9.5C0.5 4.52944 4.52944 0.5 9.5 0.5C14.4706 0.5 18.5 4.52944 18.5 9.5ZM10.1555 10.6247C10.3178 10.7941 10.399 11.0235 10.399 11.3129C10.399 11.5917 10.309 11.814 10.129 11.9798C9.94901 12.1422 9.70374 12.2233 9.39319 12.2233C9.01912 12.2233 8.73151 12.1122 8.53035 11.8899C8.41919 11.7628 8.33929 11.6051 8.29066 11.4166C8.22166 11.1492 8.01006 10.9211 7.73392 10.9211H7.2041C6.92796 10.9211 6.69879 11.1463 6.73858 11.4196C6.81091 11.9163 6.99704 12.3306 7.29697 12.6627C7.69575 13.0968 8.2088 13.3526 8.93225 13.4303V13.9806C8.93225 14.2559 9.15472 14.4794 9.42998 14.4806L9.59578 14.4814C9.8728 14.4826 10.098 14.2584 10.098 13.9814V13.4303C10.7544 13.3632 10.9936 13.1374 11.3677 12.7633C11.7417 12.3892 11.9288 11.9022 11.9288 11.3023C11.9288 10.9811 11.8794 10.7006 11.7806 10.4606C11.6817 10.2171 11.5388 10.0018 11.3518 9.81481C11.1647 9.62424 10.9354 9.45485 10.6636 9.30663C10.3919 9.15489 10.0443 8.99432 9.62081 8.82492C9.20086 8.65553 8.91325 8.48967 8.75797 8.32734C8.6027 8.165 8.52506 7.94973 8.52506 7.68153C8.52506 7.39215 8.60446 7.1663 8.76327 7.00396C8.92207 6.8381 9.14616 6.75517 9.43554 6.75517C9.72845 6.75517 9.96136 6.86104 10.1343 7.07278C10.2331 7.18942 10.3043 7.33984 10.3478 7.52403C10.4112 7.79279 10.6228 8.02031 10.899 8.02031H11.4288C11.7049 8.02031 11.934 7.7952 11.8948 7.52186C11.828 7.05688 11.6629 6.66369 11.3994 6.34228C11.0465 5.90821 10.7227 5.64707 10.098 5.55884V4.91016C10.098 4.63401 9.87419 4.41016 9.59805 4.41016H9.43225C9.1561 4.41016 8.93225 4.63401 8.93225 4.91016V5.54296C8.30056 5.60648 7.94807 5.82881 7.56694 6.20994C7.18581 6.59107 6.99524 7.07984 6.99524 7.67624C6.99524 8.02208 7.04994 8.32028 7.15934 8.57084C7.27227 8.8214 7.42754 9.04019 7.62517 9.22723C7.82632 9.41074 8.06629 9.57483 8.34508 9.71952C8.62387 9.86068 8.9556 10.0036 9.34026 10.1483C9.72492 10.293 9.99665 10.4518 10.1555 10.6247Z"
              fill="#222222"/>
    </g>
    <defs>
        <filter id="filter0_d_2251_14898" x="0.5" y="0.5" width="27" height="27" filterUnits="userSpaceOnUse"
                color-interpolation-filters="sRGB">
            <feFlood flood-opacity="0" result="BackgroundImageFix"/>
            <feColorMatrix in="SourceAlpha" type="matrix" values="0 0 0 0 0 0 0 0 0 0 0 0 0 0 0 0 0 0 127 0"
                           result="hardAlpha"/>
            <feOffset dx="5" dy="5"/>
            <feGaussianBlur stdDeviation="2"/>
            <feComposite in2="hardAlpha" operator="out"/>
            <feColorMatrix type="matrix" values="0 0 0 0 0 0 0 0 0 0 0 0 0 0 0 0 0 0 0.25 0"/>
            <feBlend mode="normal" in2="BackgroundImageFix" result="effect1_dropShadow_2251_14898"/>
            <feBlend mode="normal" in="SourceGraphic" in2="effect1_dropShadow_2251_14898" result="shape"/>
        </filter>
    </defs>
</svg>
