<svg width="14" height="11" viewBox="0 0 14 11" fill="none" xmlns="http://www.w3.org/2000/svg">
    <path fill-rule="evenodd" clip-rule="evenodd"
          d="M1.33333 1.75567V9.0086C1.90081 8.83235 2.69322 8.66667 3.66667 8.66667C4.64011 8.66667 5.43252 8.83235 6 9.0086V1.75567C5.90676 1.71798 5.79466 1.67634 5.66475 1.63435C5.20525 1.48583 4.52466 1.33333 3.66667 1.33333C2.80867 1.33333 2.12809 1.48583 1.66858 1.63435C1.53867 1.67634 1.42657 1.71798 1.33333 1.75567ZM6.32757 1.90732L6.32824 1.90771L6.32928 1.90832L6.33017 1.90884C6.33023 1.90888 6.32959 1.90845 6.32757 1.90732ZM6.66667 0.590186C6.51619 0.52346 6.31769 0.444146 6.07484 0.365648C5.50309 0.180841 4.68367 0 3.66667 0C2.64966 0 1.83025 0.180841 1.2585 0.365648C0.972642 0.458047 0.748234 0.551576 0.591261 0.624374C0.51274 0.66079 0.450966 0.692078 0.406679 0.715529C0.384532 0.727258 0.366742 0.737035 0.353402 0.744524L0.336735 0.754003L0.330921 0.757379L0.328648 0.758713L0.32767 0.75929C0.327457 0.759416 0.326798 0.759806 0.666667 1.33333L0.326798 0.759806C0.124222 0.879851 0 1.09786 0 1.33333V10C0 10.2395 0.128501 10.4606 0.336617 10.5792C0.544599 10.6977 0.800141 10.6956 1.00614 10.5738C1.00432 10.5748 1.00332 10.5754 1.00318 10.5755L1.00406 10.575L1.0051 10.5744L1.00614 10.5738C1.01019 10.5715 1.01838 10.567 1.03066 10.5605C1.05522 10.5475 1.09598 10.5267 1.15223 10.5006C1.26479 10.4484 1.43882 10.3753 1.66858 10.301C2.12809 10.1525 2.80867 10 3.66667 10C4.52466 10 5.20525 10.1525 5.66475 10.301C5.89452 10.3753 6.06855 10.4484 6.18111 10.5006C6.23735 10.5267 6.27811 10.5475 6.30268 10.5605C6.31495 10.567 6.32316 10.5716 6.32722 10.5738C6.32905 10.5749 6.33003 10.5754 6.33016 10.5755M6.33016 10.5755L6.32928 10.575L6.32824 10.5744L6.32722 10.5738C6.32719 10.5738 6.32725 10.5739 6.32722 10.5738C6.53651 10.6975 6.79691 10.6976 7.00614 10.5738C7.00509 10.5744 7.00429 10.5749 7.0038 10.5751L7.0051 10.5744L7.00614 10.5738C7.01019 10.5715 7.01838 10.567 7.03066 10.5605C7.05522 10.5475 7.09598 10.5267 7.15223 10.5006C7.26479 10.4484 7.43882 10.3753 7.66859 10.301C8.12809 10.1525 8.80867 10 9.66667 10C10.5247 10 11.2052 10.1525 11.6647 10.301C11.8945 10.3753 12.0685 10.4484 12.1811 10.5006C12.2373 10.5267 12.2781 10.5475 12.3027 10.5605C12.315 10.567 12.3232 10.5716 12.3272 10.5738L12.3279 10.5742C12.5338 10.6956 12.789 10.6976 12.9967 10.5792C13.2048 10.4606 13.3333 10.2395 13.3333 10V1.33333C13.3333 1.09786 13.2091 0.879851 13.0065 0.759806L12.6667 1.33333C13.0065 0.759806 13.0067 0.759932 13.0065 0.759806L13.0057 0.75929L13.0047 0.758713L13.0024 0.757379L12.9966 0.754003L12.9799 0.744524C12.9666 0.737035 12.9488 0.727258 12.9267 0.715529C12.8824 0.692078 12.8206 0.66079 12.7421 0.624374C12.5851 0.551576 12.3607 0.458047 12.0748 0.365648C11.5031 0.180841 10.6837 0 9.66667 0C8.64966 0 7.83025 0.180841 7.2585 0.365648C7.01565 0.444146 6.81715 0.52346 6.66667 0.590186M12 1.75567C11.9068 1.71798 11.7947 1.67634 11.6647 1.63435C11.2052 1.48583 10.5247 1.33333 9.66667 1.33333C8.80867 1.33333 8.12809 1.48583 7.66859 1.63435C7.53867 1.67634 7.42657 1.71798 7.33333 1.75567V9.0086C7.90081 8.83235 8.69322 8.66667 9.66667 8.66667C10.6401 8.66667 11.4325 8.83235 12 9.0086V1.75567ZM7.00612 1.90717C7.00409 1.90831 7.0031 1.90888 7.00317 1.90884L7.00406 1.90832L7.0051 1.90771L7.00612 1.90717ZM12.3272 1.90717C12.329 1.90819 12.33 1.90875 12.3302 1.90883L12.3293 1.90832L12.3272 1.90717ZM12.3272 10.5738C12.3282 10.5744 12.3289 10.5748 12.3294 10.5751L12.3279 10.5742"
          fill="black"/>
</svg>
