<svg width="50" height="50" viewBox="0 0 50 50" fill="none" xmlns="http://www.w3.org/2000/svg">
    <g clip-path="url(#clip0_645_5608)">
        <path d="M24.9998 50C38.8069 50 49.9998 38.8071 49.9998 25C49.9998 11.1929 38.8069 0 24.9998 0C11.1926 0 -0.000244141 11.1929 -0.000244141 25C-0.000244141 38.8071 11.1926 50 24.9998 50Z"
              fill="#6DA544"/>
        <path d="M24.9998 9.78271L45.6519 25.0001L24.9998 40.2175L4.34766 25.0001L24.9998 9.78271Z" fill="#FFDA44"/>
        <path d="M24.9999 33.6954C29.8024 33.6954 33.6955 29.8023 33.6955 24.9998C33.6955 20.1974 29.8024 16.3042 24.9999 16.3042C20.1975 16.3042 16.3043 20.1974 16.3043 24.9998C16.3043 29.8023 20.1975 33.6954 24.9999 33.6954Z"
              fill="#F0F0F0"/>
        <path d="M20.652 24.4565C19.1399 24.4565 17.6806 24.6865 16.307 25.1133C16.3678 29.8633 20.2354 33.6957 24.9999 33.6957C27.946 33.6957 30.5479 32.2292 32.1209 29.9879C29.4298 26.619 25.289 24.4565 20.652 24.4565V24.4565Z"
              fill="#0052B4"/>
        <path d="M33.5344 26.6658C33.639 26.1264 33.6956 25.5698 33.6956 24.9998C33.6956 20.1973 29.8024 16.3042 25 16.3042C21.4166 16.3042 18.3404 18.4723 17.0092 21.5678C18.1859 21.3239 19.4043 21.1955 20.6522 21.1955C25.7027 21.1954 30.2717 23.2948 33.5344 26.6658V26.6658Z"
              fill="#0052B4"/>
    </g>
    <defs>
        <clipPath id="clip0_645_5608">
            <rect width="50" height="50" fill="white"/>
        </clipPath>
    </defs>
</svg>
