<svg width="20" height="15" viewBox="0 0 20 15" fill="none" xmlns="http://www.w3.org/2000/svg">
    <path d="M14.4444 5.35714C14.4444 2.39732 11.2118 0 7.22222 0C3.23264 0 0 2.39732 0 5.35714C0 6.50558 0.489583 7.56362 1.31944 8.4375C0.854167 9.44866 0.0868056 10.2522 0.0763889 10.2623C0 10.3393 -0.0208333 10.4531 0.0243056 10.5536C0.0694444 10.654 0.166667 10.7143 0.277778 10.7143C1.54861 10.7143 2.60069 10.3025 3.35764 9.87723C4.47569 10.4029 5.79861 10.7143 7.22222 10.7143C11.2118 10.7143 14.4444 8.31696 14.4444 5.35714ZM18.6806 12.7232C19.5104 11.8527 20 10.7913 20 9.64286C20 7.4029 18.1424 5.48437 15.5104 4.68415C15.5417 4.90513 15.5556 5.12946 15.5556 5.35714C15.5556 8.9029 11.816 11.7857 7.22222 11.7857C6.84722 11.7857 6.48264 11.7589 6.12153 11.7221C7.21528 13.6473 9.78472 15 12.7778 15C14.2014 15 15.5243 14.692 16.6424 14.1629C17.3993 14.5882 18.4514 15 19.7222 15C19.8333 15 19.934 14.9364 19.9757 14.8393C20.0208 14.7422 20 14.6283 19.9236 14.548C19.9132 14.5379 19.1458 13.7377 18.6806 12.7232Z"
          fill="#6667AB"/>
    <path d="M14.4444 5.35714C14.4444 2.39732 11.2118 0 7.22222 0C3.23264 0 0 2.39732 0 5.35714C0 6.50558 0.489583 7.56362 1.31944 8.4375C0.854167 9.44866 0.0868056 10.2522 0.0763889 10.2623C0 10.3393 -0.0208333 10.4531 0.0243056 10.5536C0.0694444 10.654 0.166667 10.7143 0.277778 10.7143C1.54861 10.7143 2.60069 10.3025 3.35764 9.87723C4.47569 10.4029 5.79861 10.7143 7.22222 10.7143C11.2118 10.7143 14.4444 8.31696 14.4444 5.35714ZM18.6806 12.7232C19.5104 11.8527 20 10.7913 20 9.64286C20 7.4029 18.1424 5.48437 15.5104 4.68415C15.5417 4.90513 15.5556 5.12946 15.5556 5.35714C15.5556 8.9029 11.816 11.7857 7.22222 11.7857C6.84722 11.7857 6.48264 11.7589 6.12153 11.7221C7.21528 13.6473 9.78472 15 12.7778 15C14.2014 15 15.5243 14.692 16.6424 14.1629C17.3993 14.5882 18.4514 15 19.7222 15C19.8333 15 19.934 14.9364 19.9757 14.8393C20.0208 14.7422 20 14.6283 19.9236 14.548C19.9132 14.5379 19.1458 13.7377 18.6806 12.7232Z"
          fill="url(#paint0_linear_644_5564)" fill-opacity="0.2"/>
    <defs>
        <linearGradient id="paint0_linear_644_5564" x1="10" y1="2.28477" x2="10" y2="13.5099"
                        gradientUnits="userSpaceOnUse">
            <stop offset="0.421875" stop-color="#A119E0"/>
            <stop offset="0.869792" stop-color="#A119E0" stop-opacity="0.92"/>
        </linearGradient>
    </defs>
</svg>
