<svg width="11" height="14" viewBox="0 0 11 14" fill="none" xmlns="http://www.w3.org/2000/svg">
    <path fill-rule="evenodd" clip-rule="evenodd"
          d="M4.66667 9.66667C4.66667 9.29848 4.96514 9 5.33333 9H7.33333C7.70152 9 8 9.29848 8 9.66667C8 10.0349 7.70152 10.3333 7.33333 10.3333H5.33333C4.96514 10.3333 4.66667 10.0349 4.66667 9.66667Z"
          fill="black"/>
    <path fill-rule="evenodd" clip-rule="evenodd"
          d="M4.66667 7.66667C4.66667 7.29848 4.96514 7 5.33333 7H7.33333C7.70152 7 8 7.29848 8 7.66667C8 8.03486 7.70152 8.33333 7.33333 8.33333H5.33333C4.96514 8.33333 4.66667 8.03486 4.66667 7.66667Z"
          fill="black"/>
    <path fill-rule="evenodd" clip-rule="evenodd"
          d="M4.66667 5.66667C4.66667 5.29848 4.96514 5 5.33333 5H7.33333C7.70152 5 8 5.29848 8 5.66667C8 6.03486 7.70152 6.33333 7.33333 6.33333H5.33333C4.96514 6.33333 4.66667 6.03486 4.66667 5.66667Z"
          fill="black"/>
    <path d="M4 5.66667C4 6.03486 3.70152 6.33333 3.33333 6.33333C2.96514 6.33333 2.66667 6.03486 2.66667 5.66667C2.66667 5.29848 2.96514 5 3.33333 5C3.70152 5 4 5.29848 4 5.66667Z"
          fill="black"/>
    <path fill-rule="evenodd" clip-rule="evenodd"
          d="M0 2C0 1.26362 0.596954 0.666667 1.33333 0.666667H3.33333C3.70152 0.666667 4 0.965144 4 1.33333C4 1.70152 3.70152 2 3.33333 2H1.33333V12H9.33333V2H7.33333C6.96514 2 6.66667 1.70152 6.66667 1.33333C6.66667 0.965144 6.96514 0.666667 7.33333 0.666667H9.33333C10.0697 0.666667 10.6667 1.26362 10.6667 2V12C10.6667 12.7364 10.0697 13.3333 9.33333 13.3333H1.33333C0.596954 13.3333 0 12.7364 0 12V2Z"
          fill="black"/>
    <path d="M4 7.66667C4 8.03486 3.70152 8.33333 3.33333 8.33333C2.96514 8.33333 2.66667 8.03486 2.66667 7.66667C2.66667 7.29848 2.96514 7 3.33333 7C3.70152 7 4 7.29848 4 7.66667Z"
          fill="black"/>
    <path d="M4 9.66667C4 10.0349 3.70152 10.3333 3.33333 10.3333C2.96514 10.3333 2.66667 10.0349 2.66667 9.66667C2.66667 9.29848 2.96514 9 3.33333 9C3.70152 9 4 9.29848 4 9.66667Z"
          fill="black"/>
    <path fill-rule="evenodd" clip-rule="evenodd"
          d="M2.66667 0.666667C2.66667 0.298477 2.96514 0 3.33333 0H7.33333C7.70152 0 8 0.298477 8 0.666667V2.66667C8 3.03486 7.70152 3.33333 7.33333 3.33333H3.33333C2.96514 3.33333 2.66667 3.03486 2.66667 2.66667V0.666667ZM4 1.33333V2H6.66667V1.33333H4Z"
          fill="black"/>
</svg>
