<svg width="16" height="16" viewBox="0 0 16 16" fill="none" xmlns="http://www.w3.org/2000/svg">
    <path d="M8 0C3.58125 0 0 3.325 0 7.42857C0 9.2 0.66875 10.8214 1.78125 12.0964C1.39062 13.8964 0.084375 15.5 0.06875 15.5179C0 15.6 -0.01875 15.7214 0.021875 15.8286C0.0625 15.9357 0.15 16 0.25 16C2.32188 16 3.875 14.8643 4.64375 14.1643C5.66563 14.6036 6.8 14.8571 8 14.8571C12.4187 14.8571 16 11.5321 16 7.42857C16 3.325 12.4187 0 8 0ZM4 8.57143C3.44688 8.57143 3 8.06071 3 7.42857C3 6.79643 3.44688 6.28571 4 6.28571C4.55312 6.28571 5 6.79643 5 7.42857C5 8.06071 4.55312 8.57143 4 8.57143ZM8 8.57143C7.44688 8.57143 7 8.06071 7 7.42857C7 6.79643 7.44688 6.28571 8 6.28571C8.55313 6.28571 9 6.79643 9 7.42857C9 8.06071 8.55313 8.57143 8 8.57143ZM12 8.57143C11.4469 8.57143 11 8.06071 11 7.42857C11 6.79643 11.4469 6.28571 12 6.28571C12.5531 6.28571 13 6.79643 13 7.42857C13 8.06071 12.5531 8.57143 12 8.57143Z"
          fill="#7257B6"/>
</svg>
