<svg width="20" height="16" viewBox="0 0 20 16" fill="none" xmlns="http://www.w3.org/2000/svg">
    <path fill-rule="evenodd" clip-rule="evenodd"
          d="M0 2C0 0.895432 0.858121 0 1.91667 0H6.70833C6.9625 0 7.20626 0.105357 7.38598 0.292893L9.02195 2H17.25C18.3085 2 19.1667 2.89543 19.1667 4V14C19.1667 15.1046 18.3085 16 17.25 16H1.91667C0.858122 16 0 15.1046 0 14V2ZM6.31138 2L1.91667 2V14H17.25V4H8.625C8.37083 4 8.12708 3.89464 7.94736 3.70711L6.31138 2ZM9.58333 6C10.1126 6 10.5417 6.44772 10.5417 7V8H11.5C12.0293 8 12.4583 8.44772 12.4583 9C12.4583 9.55229 12.0293 10 11.5 10H10.5417V11C10.5417 11.5523 10.1126 12 9.58333 12C9.05406 12 8.625 11.5523 8.625 11V10H7.66667C7.13739 10 6.70833 9.55229 6.70833 9C6.70833 8.44772 7.13739 8 7.66667 8H8.625V7C8.625 6.44772 9.05406 6 9.58333 6Z"
          fill="#6667AB"/>
    <path fill-rule="evenodd" clip-rule="evenodd"
          d="M0 2C0 0.895432 0.858121 0 1.91667 0H6.70833C6.9625 0 7.20626 0.105357 7.38598 0.292893L9.02195 2H17.25C18.3085 2 19.1667 2.89543 19.1667 4V14C19.1667 15.1046 18.3085 16 17.25 16H1.91667C0.858122 16 0 15.1046 0 14V2ZM6.31138 2L1.91667 2V14H17.25V4H8.625C8.37083 4 8.12708 3.89464 7.94736 3.70711L6.31138 2ZM9.58333 6C10.1126 6 10.5417 6.44772 10.5417 7V8H11.5C12.0293 8 12.4583 8.44772 12.4583 9C12.4583 9.55229 12.0293 10 11.5 10H10.5417V11C10.5417 11.5523 10.1126 12 9.58333 12C9.05406 12 8.625 11.5523 8.625 11V10H7.66667C7.13739 10 6.70833 9.55229 6.70833 9C6.70833 8.44772 7.13739 8 7.66667 8H8.625V7C8.625 6.44772 9.05406 6 9.58333 6Z"
          fill="url(#paint0_linear_2809_48113)" fill-opacity="0.2"/>
    <defs>
        <linearGradient id="paint0_linear_2809_48113" x1="9.58333" y1="2.43709" x2="9.58333" y2="14.4106"
                        gradientUnits="userSpaceOnUse">
            <stop offset="0.421875" stop-color="#A119E0"/>
            <stop offset="0.869792" stop-color="#A119E0" stop-opacity="0.92"/>
        </linearGradient>
    </defs>
</svg>
