<svg width="20" height="20" viewBox="0 0 20 20" fill="none" xmlns="http://www.w3.org/2000/svg">
    <path fill-rule="evenodd" clip-rule="evenodd"
          d="M1.66663 5.00016C1.66663 4.07969 2.41282 3.3335 3.33329 3.3335H7.49996C7.72097 3.3335 7.93293 3.42129 8.08922 3.57757L9.5118 5.00016H16.6666C17.5871 5.00016 18.3333 5.74635 18.3333 6.66683V15.0002C18.3333 15.9206 17.5871 16.6668 16.6666 16.6668H3.33329C2.41282 16.6668 1.66663 15.9206 1.66663 15.0002V5.00016ZM7.15478 5.00016L3.33329 5.00016V15.0002H16.6666V6.66683H9.16663C8.94561 6.66683 8.73365 6.57903 8.57737 6.42275L7.15478 5.00016ZM9.99996 8.3335C10.4602 8.3335 10.8333 8.70659 10.8333 9.16683V10.0002H11.6666C12.1269 10.0002 12.5 10.3733 12.5 10.8335C12.5 11.2937 12.1269 11.6668 11.6666 11.6668H10.8333V12.5002C10.8333 12.9604 10.4602 13.3335 9.99996 13.3335C9.53972 13.3335 9.16663 12.9604 9.16663 12.5002V11.6668H8.33329C7.87306 11.6668 7.49996 11.2937 7.49996 10.8335C7.49996 10.3733 7.87306 10.0002 8.33329 10.0002H9.16663V9.16683C9.16663 8.70659 9.53972 8.3335 9.99996 8.3335Z"
          fill="#6667AB"/>
    <path fill-rule="evenodd" clip-rule="evenodd"
          d="M1.66663 5.00016C1.66663 4.07969 2.41282 3.3335 3.33329 3.3335H7.49996C7.72097 3.3335 7.93293 3.42129 8.08922 3.57757L9.5118 5.00016H16.6666C17.5871 5.00016 18.3333 5.74635 18.3333 6.66683V15.0002C18.3333 15.9206 17.5871 16.6668 16.6666 16.6668H3.33329C2.41282 16.6668 1.66663 15.9206 1.66663 15.0002V5.00016ZM7.15478 5.00016L3.33329 5.00016V15.0002H16.6666V6.66683H9.16663C8.94561 6.66683 8.73365 6.57903 8.57737 6.42275L7.15478 5.00016ZM9.99996 8.3335C10.4602 8.3335 10.8333 8.70659 10.8333 9.16683V10.0002H11.6666C12.1269 10.0002 12.5 10.3733 12.5 10.8335C12.5 11.2937 12.1269 11.6668 11.6666 11.6668H10.8333V12.5002C10.8333 12.9604 10.4602 13.3335 9.99996 13.3335C9.53972 13.3335 9.16663 12.9604 9.16663 12.5002V11.6668H8.33329C7.87306 11.6668 7.49996 11.2937 7.49996 10.8335C7.49996 10.3733 7.87306 10.0002 8.33329 10.0002H9.16663V9.16683C9.16663 8.70659 9.53972 8.3335 9.99996 8.3335Z"
          fill="url(#paint0_linear_150_10132)" fill-opacity="0.2"/>
    <defs>
        <linearGradient id="paint0_linear_150_10132" x1="9.99996" y1="5.3644" x2="9.99996" y2="15.3423"
                        gradientUnits="userSpaceOnUse">
            <stop offset="0.421875" stop-color="#A119E0"/>
            <stop offset="0.869792" stop-color="#A119E0" stop-opacity="0.92"/>
        </linearGradient>
    </defs>
</svg>
