<svg width="17" height="14" viewBox="0 0 17 14" fill="none" xmlns="http://www.w3.org/2000/svg">
    <path fill-rule="evenodd" clip-rule="evenodd"
          d="M0 1.66667C0 0.746193 0.746192 0 1.66667 0H5.83333C6.05435 0 6.26631 0.0877973 6.42259 0.244078L7.84518 1.66667H15C15.9205 1.66667 16.6667 2.41286 16.6667 3.33333V11.6667C16.6667 12.5871 15.9205 13.3333 15 13.3333H1.66667C0.746193 13.3333 0 12.5871 0 11.6667V1.66667ZM5.48816 1.66667L1.66667 1.66667V11.6667H15V3.33333H7.5C7.27899 3.33333 7.06703 3.24554 6.91074 3.08926L5.48816 1.66667ZM8.33333 5C8.79357 5 9.16667 5.3731 9.16667 5.83333V6.66667H10C10.4602 6.66667 10.8333 7.03976 10.8333 7.5C10.8333 7.96024 10.4602 8.33333 10 8.33333H9.16667V9.16667C9.16667 9.6269 8.79357 10 8.33333 10C7.8731 10 7.5 9.6269 7.5 9.16667V8.33333H6.66667C6.20643 8.33333 5.83333 7.96024 5.83333 7.5C5.83333 7.03976 6.20643 6.66667 6.66667 6.66667H7.5V5.83333C7.5 5.3731 7.8731 5 8.33333 5Z"
          fill="black"/>
</svg>
