<svg width="50" height="50" viewBox="0 0 50 50" fill="none" xmlns="http://www.w3.org/2000/svg">
    <g clip-path="url(#clip0_645_5591)">
        <path d="M24.9997 50C38.8068 50 49.9997 38.8071 49.9997 25C49.9997 11.1929 38.8068 0 24.9997 0C11.1926 0 -0.000305176 11.1929 -0.000305176 25C-0.000305176 38.8071 11.1926 50 24.9997 50Z"
              fill="#F0F0F0"/>
        <path d="M50 25.0002C50 14.2511 43.2156 5.0875 33.6956 1.55518V48.4453C43.2156 44.9129 50 35.7493 50 25.0002V25.0002Z"
              fill="#D80027"/>
        <path d="M-6.10352e-05 25.0002C-6.10352e-05 35.7493 6.78441 44.9129 16.3043 48.4452V1.55518C6.78441 5.0875 -6.10352e-05 14.2511 -6.10352e-05 25.0002Z"
              fill="#0052B4"/>
    </g>
    <defs>
        <clipPath id="clip0_645_5591">
            <rect width="50" height="50" fill="white"/>
        </clipPath>
    </defs>
</svg>
