<svg width="14" height="18" viewBox="0 0 14 18" fill="none" xmlns="http://www.w3.org/2000/svg">
    <path fill-rule="evenodd" clip-rule="evenodd"
          d="M0.333344 2.33366C0.333344 1.41319 1.07954 0.666992 2.00001 0.666992H12C12.9205 0.666992 13.6667 1.41318 13.6667 2.33366V15.667C13.6667 16.5875 12.9205 17.3337 12 17.3337H2.00001C1.07954 17.3337 0.333344 16.5875 0.333344 15.667V2.33366ZM12 2.33366L2.00001 2.33366V15.667H12V2.33366Z"
          fill="white"/>
    <path d="M7.83334 14.0003C7.83334 14.4606 7.46025 14.8337 7.00001 14.8337C6.53977 14.8337 6.16668 14.4606 6.16668 14.0003C6.16668 13.5401 6.53977 13.167 7.00001 13.167C7.46025 13.167 7.83334 13.5401 7.83334 14.0003Z"
          fill="white"/>
</svg>
