<svg width="19" height="18" viewBox="0 0 19 18" fill="none" xmlns="http://www.w3.org/2000/svg">
    <path d="M11.8793 6.05371C12.0206 6.29631 12.2573 6.46834 12.5317 6.52775L17.1315 7.52381L13.9957 11.0333C13.8086 11.2427 13.7182 11.521 13.7465 11.8003L14.2206 16.4827L9.91381 14.5849C9.6569 14.4717 9.36423 14.4717 9.10732 14.5849L4.80058 16.4827L5.27467 11.8003C5.30295 11.521 5.21251 11.2427 5.02545 11.0333L1.88964 7.52381L6.48939 6.52775C6.76378 6.46834 7.00056 6.29631 7.14186 6.05371L9.51056 1.98689L11.8793 6.05371Z"
          fill="#E1E0EF"/>
    <path d="M11.8793 6.05371C12.0206 6.29631 12.2573 6.46834 12.5317 6.52775L17.1315 7.52381L13.9957 11.0333C13.8086 11.2427 13.7182 11.521 13.7465 11.8003L14.2206 16.4827L9.91381 14.5849C9.6569 14.4717 9.36423 14.4717 9.10732 14.5849L4.80058 16.4827L5.27467 11.8003C5.30295 11.521 5.21251 11.2427 5.02545 11.0333L1.88964 7.52381L6.48939 6.52775C6.76378 6.46834 7.00056 6.29631 7.14186 6.05371L9.51056 1.98689L11.8793 6.05371Z"
          stroke="#6667AB" stroke-width="2" stroke-linejoin="round"/>
    <path d="M11.8793 6.05371C12.0206 6.29631 12.2573 6.46834 12.5317 6.52775L17.1315 7.52381L13.9957 11.0333C13.8086 11.2427 13.7182 11.521 13.7465 11.8003L14.2206 16.4827L9.91381 14.5849C9.6569 14.4717 9.36423 14.4717 9.10732 14.5849L4.80058 16.4827L5.27467 11.8003C5.30295 11.521 5.21251 11.2427 5.02545 11.0333L1.88964 7.52381L6.48939 6.52775C6.76378 6.46834 7.00056 6.29631 7.14186 6.05371L9.51056 1.98689L11.8793 6.05371Z"
          stroke="url(#paint0_linear_300_3)" stroke-opacity="0.2" stroke-width="2" stroke-linejoin="round"/>
    <defs>
        <linearGradient id="paint0_linear_300_3" x1="9.51056" y1="2.75546" x2="9.51056" y2="16.2931"
                        gradientUnits="userSpaceOnUse">
            <stop offset="0.421875" stop-color="#A119E0"/>
            <stop offset="0.869792" stop-color="#A119E0" stop-opacity="0.92"/>
        </linearGradient>
    </defs>
</svg>
