<svg width="50" height="50" viewBox="0 0 50 50" fill="none" xmlns="http://www.w3.org/2000/svg">
    <g clip-path="url(#clip0_645_5602)">
        <path d="M24.9998 50C38.8069 50 49.9998 38.8071 49.9998 25C49.9998 11.1929 38.8069 0 24.9998 0C11.1926 0 -0.000244141 11.1929 -0.000244141 25C-0.000244141 38.8071 11.1926 50 24.9998 50Z"
              fill="#F0F0F0"/>
        <path d="M34.4133 19.5656H28.1376L24.9999 14.1309L21.8623 19.5656H15.5865L18.7246 25.0004L15.5865 30.4352H21.8623L24.9999 35.8699L28.1376 30.4352H34.4133L31.2752 25.0004L34.4133 19.5656ZM28.8549 25.0004L26.9276 28.3391H23.0726L21.1449 25.0004L23.0725 21.6617H26.9275L28.8549 25.0004ZM24.9999 18.3229L25.7173 19.5655H24.2827L24.9999 18.3229ZM19.2173 21.6617H20.6521L19.9347 22.9043L19.2173 21.6617ZM19.2173 28.3391L19.9348 27.0965L20.6522 28.3391H19.2173ZM24.9999 31.6777L24.2826 30.4352H25.7173L24.9999 31.6777ZM30.7825 28.3391H29.3478L30.0653 27.0965L30.7825 28.3391ZM29.3478 21.6617H30.7825L30.0652 22.9043L29.3478 21.6617Z"
              fill="#0052B4"/>
        <path d="M40.5621 5.43506H9.43765C7.1561 7.25225 5.19946 9.45947 3.66919 11.9568H46.3305C44.8001 9.45957 42.8435 7.25225 40.5621 5.43506V5.43506Z"
              fill="#0052B4"/>
        <path d="M9.43765 44.5657H40.562C42.8435 42.7485 44.8001 40.5413 46.3304 38.0439H3.66919C5.19956 40.5412 7.1562 42.7485 9.43765 44.5657V44.5657Z"
              fill="#0052B4"/>
    </g>
    <defs>
        <clipPath id="clip0_645_5602">
            <rect width="50" height="50" fill="white"/>
        </clipPath>
    </defs>
</svg>
