<svg width="20" height="14" viewBox="0 0 20 14" fill="none" xmlns="http://www.w3.org/2000/svg">
    <path d="M19.6211 4.62292C19.7734 4.5099 20 4.61562 20 4.79427V12.25C20 13.2161 19.1602 14 18.125 14H1.875C0.839844 14 0 13.2161 0 12.25V4.79792C0 4.61562 0.222656 4.51354 0.378906 4.62656C1.25391 5.26094 2.41406 6.06667 6.39844 8.76823C7.22266 9.32969 8.61328 10.5109 10 10.5036C11.3945 10.5146 12.8125 9.30781 13.6055 8.76823C17.5898 6.06667 18.7461 5.25729 19.6211 4.62292ZM10 9.33333C10.9062 9.34792 12.2109 8.26875 12.8672 7.82396C18.0508 4.31302 18.4453 4.00677 19.6406 3.13177C19.8672 2.96771 20 2.7125 20 2.44271V1.75C20 0.783854 19.1602 0 18.125 0H1.875C0.839844 0 0 0.783854 0 1.75V2.44271C0 2.7125 0.132812 2.96406 0.359375 3.13177C1.55469 4.00312 1.94922 4.31302 7.13281 7.82396C7.78906 8.26875 9.09375 9.34792 10 9.33333Z"
          fill="#6667AB"/>
    <path d="M19.6211 4.62292C19.7734 4.5099 20 4.61562 20 4.79427V12.25C20 13.2161 19.1602 14 18.125 14H1.875C0.839844 14 0 13.2161 0 12.25V4.79792C0 4.61562 0.222656 4.51354 0.378906 4.62656C1.25391 5.26094 2.41406 6.06667 6.39844 8.76823C7.22266 9.32969 8.61328 10.5109 10 10.5036C11.3945 10.5146 12.8125 9.30781 13.6055 8.76823C17.5898 6.06667 18.7461 5.25729 19.6211 4.62292ZM10 9.33333C10.9062 9.34792 12.2109 8.26875 12.8672 7.82396C18.0508 4.31302 18.4453 4.00677 19.6406 3.13177C19.8672 2.96771 20 2.7125 20 2.44271V1.75C20 0.783854 19.1602 0 18.125 0H1.875C0.839844 0 0 0.783854 0 1.75V2.44271C0 2.7125 0.132812 2.96406 0.359375 3.13177C1.55469 4.00312 1.94922 4.31302 7.13281 7.82396C7.78906 8.26875 9.09375 9.34792 10 9.33333Z"
          fill="url(#paint0_linear_644_5568)" fill-opacity="0.2"/>
    <defs>
        <linearGradient id="paint0_linear_644_5568" x1="10" y1="2.13245" x2="10" y2="12.6093"
                        gradientUnits="userSpaceOnUse">
            <stop offset="0.421875" stop-color="#A119E0"/>
            <stop offset="0.869792" stop-color="#A119E0" stop-opacity="0.92"/>
        </linearGradient>
    </defs>
</svg>
