<svg width="55" height="38" viewBox="0 0 55 38" fill="none" xmlns="http://www.w3.org/2000/svg">
    <rect x="0.5" y="0.5" width="54" height="37" rx="5.5" fill="white" stroke="#D9D9D9"/>
    <path fill-rule="evenodd" clip-rule="evenodd"
          d="M27.8929 27.1655C26.0204 28.7936 23.5915 29.7764 20.9374 29.7764C15.0152 29.7764 10.2143 24.883 10.2143 18.8467C10.2143 12.8104 15.0152 7.91699 20.9374 7.91699C23.5915 7.91699 26.0204 8.89985 27.8929 10.528C29.7653 8.89985 32.1942 7.91699 34.8484 7.91699C40.7706 7.91699 45.5714 12.8104 45.5714 18.8467C45.5714 24.883 40.7706 29.7764 34.8484 29.7764C32.1942 29.7764 29.7653 28.7936 27.8929 27.1655Z"
          fill="#ED0006"/>
    <path fill-rule="evenodd" clip-rule="evenodd"
          d="M27.8929 27.1655C30.1985 25.1608 31.6604 22.1778 31.6604 18.8467C31.6604 15.5157 30.1985 12.5327 27.8929 10.528C29.7653 8.89985 32.1942 7.91699 34.8484 7.91699C40.7705 7.91699 45.5714 12.8104 45.5714 18.8467C45.5714 24.883 40.7705 29.7764 34.8484 29.7764C32.1942 29.7764 29.7653 28.7936 27.8929 27.1655Z"
          fill="#F9A000"/>
    <path fill-rule="evenodd" clip-rule="evenodd"
          d="M27.8929 10.5283C30.1985 12.533 31.6604 15.516 31.6604 18.847C31.6604 22.1781 30.1985 25.1611 27.8929 27.1658C25.5873 25.1611 24.1254 22.1781 24.1254 18.847C24.1254 15.516 25.5873 12.533 27.8929 10.5283Z"
          fill="#FF5E00"/>
</svg>
