<svg width="13" height="19" viewBox="0 0 13 19" fill="none" xmlns="http://www.w3.org/2000/svg">
    <path fill-rule="evenodd" clip-rule="evenodd"
          d="M10.5 2.5L8.36622 2.5C8.19331 2.7989 7.87014 3 7.5 3H5.5C5.12986 3 4.80669 2.7989 4.63378 2.5L2.5 2.5L2.5 16.5H10.5L10.5 2.5ZM12.5 1.5C12.5 0.947716 12.0523 0.5 11.5 0.5H1.5C0.947716 0.5 0.5 0.947716 0.5 1.5V17.5C0.5 18.0523 0.947715 18.5 1.5 18.5H11.5C12.0523 18.5 12.5 18.0523 12.5 17.5L12.5 1.5ZM7.5 13.5C7.5 14.0523 7.05228 14.5 6.5 14.5C5.94772 14.5 5.5 14.0523 5.5 13.5C5.5 12.9477 5.94772 12.5 6.5 12.5C7.05228 12.5 7.5 12.9477 7.5 13.5Z"
          fill="white"/>
</svg>
