<svg width="19" height="18" viewBox="0 0 19 18" fill="none" xmlns="http://www.w3.org/2000/svg">
    <mask id="path-1-inside-1_2251_14906" fill="white">
        <path d="M16.0187 0H2.75C1.64543 0 0.75 0.895431 0.75 2V10C0.75 11.1046 1.64543 12 2.75 12H3.62812V16.0874C3.62812 16.8948 4.53569 17.3693 5.19877 16.9086L12.0052 12.1788C12.1727 12.0624 12.3718 12 12.5758 12H16.0187C17.1233 12 18.0187 11.1046 18.0187 10V2C18.0187 0.895431 17.1233 0 16.0187 0Z"/>
    </mask>
    <path d="M3.62812 12H5.62813C5.62813 10.8954 4.73269 10 3.62812 10V12ZM5.19877 16.9086L6.34006 18.551L6.34006 18.551L5.19877 16.9086ZM12.0052 12.1788L13.1465 13.8212L13.1465 13.8212L12.0052 12.1788ZM2.75 2H16.0187V-2H2.75V2ZM16.0187 2V10H20.0187V2H16.0187ZM2.75 10V2H-1.25V10H2.75ZM3.62812 10H2.75V14H3.62812V10ZM1.62812 12V16.0874H5.62813V12H1.62812ZM16.0187 10H12.5758V14H16.0187V10ZM6.34006 18.551L13.1465 13.8212L10.8639 10.5364L4.05748 15.2662L6.34006 18.551ZM12.5758 10C11.9638 10 11.3665 10.1872 10.8639 10.5364L13.1465 13.8212C12.979 13.9376 12.7798 14 12.5758 14V10ZM-1.25 10C-1.25 12.2091 0.54086 14 2.75 14V10H2.75H-1.25ZM16.0187 10V14C18.2279 14 20.0187 12.2091 20.0187 10H16.0187ZM16.0187 2H16.0187H20.0187C20.0187 -0.20914 18.2279 -2 16.0187 -2V2ZM1.62812 16.0874C1.62812 18.5097 4.35082 19.9333 6.34006 18.551L4.05748 15.2662C4.72056 14.8054 5.62813 15.2799 5.62813 16.0874H1.62812ZM2.75 -2C0.540861 -2 -1.25 -0.209138 -1.25 2H2.75V2V-2Z"
          fill="#222222" mask="url(#path-1-inside-1_2251_14906)"/>
</svg>
