<svg width="50" height="50" viewBox="0 0 50 50" fill="none" xmlns="http://www.w3.org/2000/svg">
    <g clip-path="url(#clip0_644_5579)">
        <path d="M25.0004 50C38.8075 50 50.0004 38.8071 50.0004 25C50.0004 11.1929 38.8075 0 25.0004 0C11.1932 0 0.000366211 11.1929 0.000366211 25C0.000366211 38.8071 11.1932 50 25.0004 50Z"
              fill="#F0F0F0"/>
        <path d="M0.86145 31.522C2.30793 36.8891 5.49592 41.5408 9.78284 44.8347V31.522H0.86145Z" fill="#D80027"/>
        <path d="M22.8263 49.9051C23.5429 49.9668 24.2676 50.0002 25.0002 50.0002C36.5509 50.0002 46.2702 42.1661 49.139 31.522H22.8263V49.9051Z"
              fill="#D80027"/>
        <path d="M49.139 18.4782C46.2702 7.83408 36.5509 0 25.0002 0C24.2676 0 23.5429 0.0333984 22.8263 0.0951172V18.4782H49.139Z"
              fill="#D80027"/>
        <path d="M9.78284 5.16553C5.49592 8.45947 2.30793 13.1111 0.86145 18.4782H9.78284V5.16553Z" fill="#D80027"/>
        <path d="M49.7884 21.7392H19.5653H19.5652V0.594238C17.2549 1.10654 15.0646 1.93691 13.0435 3.03975V21.739V21.7391H0.211621C0.0724609 22.8065 0 23.8948 0 25C0 26.1052 0.0724609 27.1935 0.211621 28.2608H13.0434H13.0435V46.9602C15.0646 48.0629 17.2549 48.8935 19.5652 49.4057V28.2611V28.2609H49.7884C49.9273 27.1935 50 26.1052 50 25C50 23.8948 49.9273 22.8065 49.7884 21.7392V21.7392Z"
              fill="#0052B4"/>
    </g>
    <defs>
        <clipPath id="clip0_644_5579">
            <rect width="50" height="50" fill="white"/>
        </clipPath>
    </defs>
</svg>
