<svg width="55" height="38" viewBox="0 0 55 38" fill="none" xmlns="http://www.w3.org/2000/svg">
    <rect x="0.5" y="0.5" width="54" height="37" rx="5.5" fill="white" stroke="#D9D9D9"/>
    <path fill-rule="evenodd" clip-rule="evenodd"
          d="M15.5572 24.1309H13.1126C12.9453 24.1309 12.8031 24.2534 12.777 24.4197L11.7883 30.7357C11.7686 30.8604 11.8644 30.9727 11.9899 30.9727H13.1569C13.3242 30.9727 13.4665 30.8502 13.4926 30.6835L13.7592 28.98C13.785 28.8132 13.9276 28.6909 14.0945 28.6909H14.8684C16.4787 28.6909 17.408 27.9057 17.6508 26.3499C17.7601 25.6692 17.6554 25.1344 17.339 24.7597C16.9916 24.3485 16.3753 24.1309 15.5572 24.1309ZM15.8392 26.4377C15.7055 27.3215 15.0353 27.3215 14.3873 27.3215H14.0184L14.2772 25.6709C14.2925 25.5712 14.3783 25.4977 14.4784 25.4977H14.6475C15.0889 25.4977 15.5054 25.4977 15.7206 25.7512C15.8488 25.9025 15.8882 26.1272 15.8392 26.4377ZM22.8645 26.4094H21.6939C21.5941 26.4094 21.5079 26.4829 21.4925 26.5827L21.4408 26.9125L21.3589 26.793C21.1055 26.4224 20.5404 26.2985 19.9764 26.2985C18.6827 26.2985 17.5779 27.2857 17.3627 28.6705C17.2508 29.3612 17.4098 30.0217 17.7987 30.4824C18.1555 30.9059 18.6659 31.0824 19.2732 31.0824C20.3155 31.0824 20.8936 30.407 20.8936 30.407L20.8413 30.7349C20.8216 30.8602 20.9174 30.9725 21.0421 30.9725H22.0966C22.2644 30.9725 22.4058 30.85 22.4323 30.6834L23.065 26.6464C23.085 26.5222 22.9895 26.4094 22.8645 26.4094ZM21.2327 28.705C21.1197 29.3789 20.5889 29.8312 19.912 29.8312C19.5721 29.8312 19.3003 29.7214 19.126 29.5132C18.9529 29.3065 18.8871 29.0122 18.9422 28.6845C19.0477 28.0164 19.5875 27.5494 20.2541 27.5494C20.5864 27.5494 20.8567 27.6605 21.0347 27.8705C21.213 28.0827 21.2838 28.3787 21.2327 28.705ZM27.9227 26.4092H29.0991C29.2639 26.4092 29.36 26.5954 29.2663 26.7315L25.3538 32.4219C25.2904 32.5141 25.1861 32.5689 25.0746 32.5689H23.8996C23.7342 32.5689 23.6376 32.3812 23.7334 32.2447L24.9517 30.512L23.656 26.6807C23.6112 26.5475 23.7088 26.4092 23.8494 26.4092H25.0053C25.1555 26.4092 25.288 26.5085 25.3313 26.6534L26.0189 28.9674L27.6415 26.5594C27.705 26.4654 27.8105 26.4092 27.9227 26.4092Z"
          fill="#253B80"/>
    <path fill-rule="evenodd" clip-rule="evenodd"
          d="M40.6772 30.736L41.6804 24.3045C41.6958 24.2047 41.7816 24.1312 41.8814 24.1309H43.0108C43.1355 24.1309 43.2313 24.2435 43.2116 24.3682L42.2223 30.6839C42.1965 30.8505 42.0542 30.973 41.8867 30.973H40.878C40.7532 30.973 40.6575 30.8607 40.6772 30.736ZM32.9938 24.1312H30.5489C30.3819 24.1312 30.2397 24.2537 30.2136 24.42L29.2249 30.736C29.2052 30.8607 29.301 30.973 29.4259 30.973H30.6804C30.797 30.973 30.8967 30.8874 30.9149 30.7707L31.1955 28.9804C31.2213 28.8135 31.3638 28.6912 31.5307 28.6912H32.3042C33.9149 28.6912 34.844 27.906 35.087 26.3502C35.1967 25.6695 35.0913 25.1347 34.775 24.76C34.4278 24.3489 33.812 24.1312 32.9938 24.1312ZM33.2759 26.438C33.1425 27.3219 32.4723 27.3219 31.8239 27.3219H31.4553L31.7145 25.6712C31.7299 25.5715 31.8149 25.498 31.9153 25.498H32.0844C32.5255 25.498 32.9424 25.498 33.1574 25.7515C33.2858 25.9029 33.3248 26.1275 33.2759 26.438ZM40.3005 26.4097H39.1307C39.0301 26.4097 38.9448 26.4832 38.9297 26.583L38.8779 26.9129L38.7957 26.7934C38.5423 26.4227 37.9776 26.2989 37.4135 26.2989C36.1198 26.2989 35.0154 27.286 34.8002 28.6709C34.6887 29.3615 34.847 30.022 35.2359 30.4827C35.5933 30.9062 36.1031 31.0827 36.7104 31.0827C37.7526 31.0827 38.3306 30.4074 38.3306 30.4074L38.2785 30.7352C38.2588 30.8605 38.3546 30.9729 38.4801 30.9729H39.5341C39.701 30.9729 39.8433 30.8504 39.8694 30.6837L40.5025 26.6467C40.5218 26.5225 40.4261 26.4097 40.3005 26.4097ZM38.6689 28.7054C38.5565 29.3792 38.0251 29.8315 37.348 29.8315C37.0088 29.8315 36.7365 29.7217 36.562 29.5135C36.389 29.3069 36.3239 29.0125 36.3784 28.6849C36.4844 28.0167 37.0235 27.5497 37.6901 27.5497C38.0226 27.5497 38.2927 27.6609 38.4709 27.8709C38.6498 28.083 38.7206 28.379 38.6689 28.7054Z"
          fill="#179BD7"/>
    <path d="M24.6039 21.8719L24.9044 19.9485L24.235 19.9329H21.0384L23.2599 5.74013C23.2667 5.69728 23.2892 5.65733 23.3219 5.62896C23.3547 5.60059 23.3967 5.58496 23.4404 5.58496H28.8304C30.6198 5.58496 31.8546 5.96015 32.4994 6.70066C32.8016 7.04806 32.9942 7.41108 33.0873 7.81058C33.1849 8.22978 33.1867 8.7306 33.0913 9.34144L33.0843 9.38602V9.7774L33.3867 9.94995C33.6413 10.086 33.8434 10.2418 33.9986 10.4201C34.2573 10.7171 34.4245 11.0946 34.4951 11.5422C34.5681 12.0025 34.5439 12.5502 34.4245 13.1703C34.2866 13.8836 34.0636 14.5048 33.7625 15.0132C33.4855 15.4816 33.1326 15.87 32.7138 16.1712C32.3138 16.4572 31.8386 16.6744 31.3013 16.8134C30.7806 16.9499 30.1871 17.0189 29.536 17.0189H29.1165C28.8166 17.0189 28.5252 17.1277 28.2966 17.3229C28.0673 17.522 27.9155 17.794 27.869 18.0917L27.8374 18.2649L27.3064 21.6547L27.2823 21.7792C27.276 21.8187 27.2651 21.8384 27.249 21.8517C27.2346 21.8637 27.214 21.8719 27.1938 21.8719H24.6039Z"
          fill="#253B80"/>
    <path d="M33.6729 9.43164C33.6568 9.53527 33.6385 9.64122 33.6178 9.75007C32.9068 13.4272 30.4751 14.6975 27.3691 14.6975H25.7878C25.408 14.6975 25.0879 14.9754 25.0287 15.3529L24.219 20.5268L23.9897 21.9933C23.9512 22.2412 24.1409 22.4647 24.389 22.4647H27.1939C27.5261 22.4647 27.8081 22.2215 27.8604 21.8915L27.888 21.7478L28.4162 18.3712L28.4501 18.186C28.5017 17.8548 28.7844 17.6117 29.1166 17.6117H29.536C32.2535 17.6117 34.3809 16.5 35.0026 13.2831C35.2623 11.9392 35.1279 10.8172 34.4406 10.028C34.2326 9.79002 33.9746 9.59259 33.6729 9.43164Z"
          fill="#179BD7"/>
    <path d="M32.929 9.13304C32.8205 9.10119 32.7084 9.07224 32.5934 9.04619C32.4779 9.02073 32.3595 8.99814 32.2378 8.97846C31.8113 8.90898 31.3442 8.87598 30.8436 8.87598H26.619C26.5149 8.87598 26.4162 8.89971 26.3277 8.94256C26.1328 9.03693 25.9881 9.22279 25.953 9.45033L25.0542 15.1858L25.0284 15.3531C25.0876 14.9756 25.4076 14.6977 25.7874 14.6977H27.3688C30.4748 14.6977 32.9067 13.4268 33.6175 9.75025C33.6386 9.6414 33.6565 9.53544 33.6726 9.43181C33.4927 9.33569 33.2979 9.25348 33.0881 9.18341C33.0365 9.16604 32.9831 9.14926 32.929 9.13304Z"
          fill="#222D65"/>
    <path d="M25.953 9.44982C25.9881 9.22226 26.133 9.03641 26.3277 8.94261C26.4169 8.89976 26.5151 8.87603 26.619 8.87603H30.8438C31.3444 8.87603 31.8115 8.90903 32.2378 8.97851C32.3597 8.9982 32.4781 9.02078 32.5936 9.04625C32.7085 9.07231 32.8205 9.10126 32.9292 9.1331C32.9831 9.14931 33.0366 9.1661 33.0888 9.1829C33.2986 9.25295 33.4934 9.33575 33.6732 9.43128C33.8848 8.0724 33.6716 7.14718 32.9424 6.30937C32.1385 5.38705 30.6875 4.99219 28.8309 4.99219H23.4407C23.0614 4.99219 22.7381 5.27009 22.6793 5.64817L20.4343 19.9868C20.39 20.2705 20.6072 20.5265 20.891 20.5265H24.2188L25.0543 15.1853L25.953 9.44982Z"
          fill="#253B80"/>
</svg>
