<svg width="149" height="160" viewBox="0 0 149 160" fill="none" xmlns="http://www.w3.org/2000/svg">
    <path fill-rule="evenodd" clip-rule="evenodd"
          d="M110.609 129.625C99.0034 140.199 84.0828 146.793 74.5 146.793C64.9172 146.793 49.9966 140.199 38.3913 129.625C23.0692 115.666 13.9688 96.125 13.9688 71.7929V41.4764C13.9709 33.5627 19.698 27.0121 26.9999 26.5148L29.5763 26.3079C37.0286 25.6184 43.751 24.1954 49.7463 22.0494C55.9809 19.8178 61.4236 16.8067 66.1006 13.014C71.0746 8.99448 77.9254 8.99448 82.9057 13.0191C87.5764 16.8067 93.0191 19.8178 99.2537 22.0494C105.92 24.4356 113.485 25.9276 121.947 26.5109C129.302 27.0121 135.029 33.5627 135.031 41.4779V71.7929C135.031 96.125 125.931 115.666 110.609 129.625ZM44.4162 122C54.4244 131.119 67.2639 136.793 74.5 136.793C81.7362 136.793 94.5756 131.119 104.584 122C117.893 109.874 125.719 93.0712 125.719 71.7929V41.4793C125.719 38.8414 123.809 36.6579 121.354 36.4906C112.121 35.8542 103.771 34.2074 96.3088 31.5363C89.139 28.9699 82.7938 25.4595 77.2998 21.0043C75.6418 19.6644 73.3582 19.6644 71.7065 20.9992C66.2062 25.4595 59.861 28.9699 52.6912 31.5363C45.9714 33.9416 38.5319 35.5163 30.3238 36.2755L27.6426 36.4908C25.191 36.6579 23.2812 38.8414 23.2812 41.4779V71.7929C23.2812 93.0712 31.1067 109.874 44.4162 122Z"
          fill="white"/>
    <path d="M100.848 56.2372C102.634 57.9157 102.938 60.7364 101.643 62.7949L101.286 63.2926L68.6918 103.293C66.8729 105.525 63.6986 105.55 61.8398 103.476L61.4626 103L47.4938 83.0001C45.9509 80.7909 46.3678 77.6569 48.4251 76.0001C50.3241 74.4707 52.957 74.7345 54.5644 76.5217L54.9438 77.0001L65.467 92.0651L94.2772 56.7075C95.8403 54.7892 98.467 54.4622 100.384 55.8535L100.848 56.2372Z"
          fill="white"/>
</svg>
