<svg width="14" height="17" viewBox="0 0 14 17" fill="none" xmlns="http://www.w3.org/2000/svg">
    <path fill-rule="evenodd" clip-rule="evenodd"
          d="M0 1.66667C0 0.746193 0.746192 0 1.66667 0H11.6667C12.5871 0 13.3333 0.746192 13.3333 1.66667V15C13.3333 15.9205 12.5871 16.6667 11.6667 16.6667H1.66667C0.746193 16.6667 0 15.9205 0 15V1.66667ZM11.6667 1.66667L1.66667 1.66667V15H11.6667V1.66667Z"
          fill="#6667AB"/>
    <path fill-rule="evenodd" clip-rule="evenodd"
          d="M0 1.66667C0 0.746193 0.746192 0 1.66667 0H11.6667C12.5871 0 13.3333 0.746192 13.3333 1.66667V15C13.3333 15.9205 12.5871 16.6667 11.6667 16.6667H1.66667C0.746193 16.6667 0 15.9205 0 15V1.66667ZM11.6667 1.66667L1.66667 1.66667V15H11.6667V1.66667Z"
          fill="url(#paint0_linear_2809_48035)" fill-opacity="0.2"/>
    <path d="M7.5 13.3333C7.5 13.7936 7.1269 14.1667 6.66667 14.1667C6.20643 14.1667 5.83333 13.7936 5.83333 13.3333C5.83333 12.8731 6.20643 12.5 6.66667 12.5C7.1269 12.5 7.5 12.8731 7.5 13.3333Z"
          fill="#6667AB"/>
    <path d="M7.5 13.3333C7.5 13.7936 7.1269 14.1667 6.66667 14.1667C6.20643 14.1667 5.83333 13.7936 5.83333 13.3333C5.83333 12.8731 6.20643 12.5 6.66667 12.5C7.1269 12.5 7.5 12.8731 7.5 13.3333Z"
          fill="url(#paint1_linear_2809_48035)" fill-opacity="0.2"/>
    <defs>
        <linearGradient id="paint0_linear_2809_48035" x1="6.66667" y1="2.53863" x2="6.66667" y2="15.011"
                        gradientUnits="userSpaceOnUse">
            <stop offset="0.421875" stop-color="#A119E0"/>
            <stop offset="0.869792" stop-color="#A119E0" stop-opacity="0.92"/>
        </linearGradient>
        <linearGradient id="paint1_linear_2809_48035" x1="6.66667" y1="2.53863" x2="6.66667" y2="15.011"
                        gradientUnits="userSpaceOnUse">
            <stop offset="0.421875" stop-color="#A119E0"/>
            <stop offset="0.869792" stop-color="#A119E0" stop-opacity="0.92"/>
        </linearGradient>
    </defs>
</svg>
