<svg width="20" height="20" viewBox="0 0 20 20" fill="none" xmlns="http://www.w3.org/2000/svg">
    <path fill-rule="evenodd" clip-rule="evenodd"
          d="M3.33325 3.33317C3.33325 2.4127 4.07944 1.6665 4.99992 1.6665H14.9999C15.9204 1.6665 16.6666 2.4127 16.6666 3.33317V16.6665C16.6666 17.587 15.9204 18.3332 14.9999 18.3332H4.99992C4.07944 18.3332 3.33325 17.587 3.33325 16.6665V3.33317ZM14.9999 3.33317L4.99992 3.33317V16.6665H14.9999V3.33317Z"
          fill="#6667AB"/>
    <path fill-rule="evenodd" clip-rule="evenodd"
          d="M3.33325 3.33317C3.33325 2.4127 4.07944 1.6665 4.99992 1.6665H14.9999C15.9204 1.6665 16.6666 2.4127 16.6666 3.33317V16.6665C16.6666 17.587 15.9204 18.3332 14.9999 18.3332H4.99992C4.07944 18.3332 3.33325 17.587 3.33325 16.6665V3.33317ZM14.9999 3.33317L4.99992 3.33317V16.6665H14.9999V3.33317Z"
          fill="url(#paint0_linear_150_10153)" fill-opacity="0.2"/>
    <path d="M10.8333 14.9998C10.8333 15.4601 10.4602 15.8332 9.99992 15.8332C9.53968 15.8332 9.16658 15.4601 9.16658 14.9998C9.16658 14.5396 9.53968 14.1665 9.99992 14.1665C10.4602 14.1665 10.8333 14.5396 10.8333 14.9998Z"
          fill="#6667AB"/>
    <path d="M10.8333 14.9998C10.8333 15.4601 10.4602 15.8332 9.99992 15.8332C9.53968 15.8332 9.16658 15.4601 9.16658 14.9998C9.16658 14.5396 9.53968 14.1665 9.99992 14.1665C10.4602 14.1665 10.8333 14.5396 10.8333 14.9998Z"
          fill="url(#paint1_linear_150_10153)" fill-opacity="0.2"/>
    <defs>
        <linearGradient id="paint0_linear_150_10153" x1="9.99992" y1="4.20514" x2="9.99992" y2="16.6775"
                        gradientUnits="userSpaceOnUse">
            <stop offset="0.421875" stop-color="#A119E0"/>
            <stop offset="0.869792" stop-color="#A119E0" stop-opacity="0.92"/>
        </linearGradient>
        <linearGradient id="paint1_linear_150_10153" x1="9.99992" y1="4.20514" x2="9.99992" y2="16.6775"
                        gradientUnits="userSpaceOnUse">
            <stop offset="0.421875" stop-color="#A119E0"/>
            <stop offset="0.869792" stop-color="#A119E0" stop-opacity="0.92"/>
        </linearGradient>
    </defs>
</svg>
