<svg width="10" height="13" viewBox="0 0 10 13" fill="none" xmlns="http://www.w3.org/2000/svg">
    <path fill-rule="evenodd" clip-rule="evenodd"
          d="M0 1.25C0 0.559645 0.559644 0 1.25 0H8.75C9.44036 0 10 0.559644 10 1.25V11.25C10 11.9404 9.44036 12.5 8.75 12.5H1.25C0.559645 12.5 0 11.9404 0 11.25V1.25ZM8.75 1.25L1.25 1.25V11.25H8.75V1.25Z"
          fill="black"/>
    <path d="M5.625 10C5.625 10.3452 5.34518 10.625 5 10.625C4.65482 10.625 4.375 10.3452 4.375 10C4.375 9.65482 4.65482 9.375 5 9.375C5.34518 9.375 5.625 9.65482 5.625 10Z"
          fill="black"/>
</svg>
