<svg width="20" height="20" viewBox="0 0 20 20" fill="none" xmlns="http://www.w3.org/2000/svg">
    <path fill-rule="evenodd" clip-rule="evenodd"
          d="M3.33337 3.33317C3.33337 2.4127 4.07957 1.6665 5.00004 1.6665H15C15.9205 1.6665 16.6667 2.4127 16.6667 3.33317V16.6665C16.6667 17.587 15.9205 18.3332 15 18.3332H5.00004C4.07957 18.3332 3.33337 17.587 3.33337 16.6665V3.33317ZM15 3.33317L5.00004 3.33317V16.6665H15V3.33317Z"
          fill="black"/>
    <path d="M10.8334 14.9998C10.8334 15.4601 10.4603 15.8332 10 15.8332C9.5398 15.8332 9.16671 15.4601 9.16671 14.9998C9.16671 14.5396 9.5398 14.1665 10 14.1665C10.4603 14.1665 10.8334 14.5396 10.8334 14.9998Z"
          fill="black"/>
</svg>
