<svg width="55" height="38" viewBox="0 0 55 38" fill="none" xmlns="http://www.w3.org/2000/svg">
    <rect x="0.5" y="0.5" width="54" height="37" rx="5.5" fill="white" stroke="#D9D9D9"/>
    <path d="M17.015 7.91797H25.6827C26.8926 7.91797 27.6451 8.91163 27.3629 10.1348L23.3275 27.5916C23.0427 28.8105 21.8313 29.805 20.6205 29.805H11.9537C10.7455 29.805 9.99125 28.8105 10.2735 27.5916L14.3106 10.1348C14.5929 8.91163 15.8036 7.91797 17.015 7.91797Z"
          fill="#E21836"/>
    <path d="M24.961 7.91699H34.9285C36.1383 7.91699 35.5928 8.91066 35.3082 10.1338L31.2734 27.5906C30.9903 28.8095 31.0786 29.804 29.8664 29.804H19.8988C18.6865 29.804 17.9363 28.8095 18.2211 27.5906L22.2557 10.1338C22.5422 8.91066 23.7504 7.91699 24.961 7.91699Z"
          fill="#00447C"/>
    <path d="M34.5333 7.91699H43.201C44.4126 7.91699 45.1651 8.91066 44.8806 10.1338L40.8458 27.5906C40.561 28.8095 39.3487 29.804 38.1373 29.804H29.4737C28.2615 29.804 27.5096 28.8095 27.7935 27.5906L31.8289 10.1338C32.1112 8.91066 33.3211 7.91699 34.5333 7.91699Z"
          fill="#007B84"/>
    <path d="M19.2783 13.5113C18.387 13.5204 18.1237 13.5113 18.0396 13.4913C18.0073 13.646 17.4058 16.4416 17.4042 16.444C17.2746 17.0096 17.1804 17.4127 16.8604 17.6731C16.6787 17.8244 16.4665 17.8974 16.2206 17.8974C15.8254 17.8974 15.5951 17.6997 15.5564 17.3246L15.549 17.1958C15.549 17.1958 15.6694 16.4382 15.6694 16.434C15.6694 16.434 16.3007 13.8864 16.4137 13.5496C16.4196 13.5304 16.4213 13.5204 16.4228 13.5113C15.1941 13.5221 14.9763 13.5113 14.9613 13.4913C14.953 13.5187 14.9226 13.6767 14.9226 13.6767L14.278 16.5481L14.2227 16.7916L14.1156 17.5881C14.1156 17.8244 14.1616 18.0173 14.2533 18.1803C14.547 18.6974 15.3847 18.7749 15.8585 18.7749C16.4691 18.7749 17.0418 18.6442 17.4289 18.4055C18.1007 18.0056 18.2765 17.3804 18.4332 16.8248L18.5059 16.5398C18.5059 16.5398 19.1562 13.8938 19.2667 13.5496C19.2709 13.5304 19.2726 13.5204 19.2783 13.5113ZM21.4908 15.6458C21.3341 15.6458 21.0476 15.6841 20.7903 15.8112C20.6969 15.8595 20.6086 15.9153 20.5154 15.9708L20.5995 15.665L20.5534 15.6134C20.0077 15.7248 19.8856 15.7397 19.3815 15.8112L19.3393 15.8395C19.2808 16.3285 19.2288 16.6961 19.0118 17.6572C18.9292 18.0114 18.8434 18.369 18.7575 18.7224L18.7807 18.7673C19.2973 18.7398 19.454 18.7398 19.903 18.7473L19.9393 18.7075C19.9963 18.4131 20.0037 18.3441 20.1301 17.7479C20.1894 17.4652 20.3132 16.844 20.3743 16.6229C20.4865 16.5705 20.5972 16.519 20.7028 16.519C20.9544 16.519 20.9238 16.7402 20.9141 16.8283C20.9033 16.9762 20.8116 17.4594 20.7176 17.8743L20.6549 18.1421C20.6111 18.3398 20.5632 18.5321 20.5194 18.7281L20.5384 18.7673C21.0476 18.7398 21.2029 18.7398 21.6377 18.7473L21.6888 18.7075C21.7674 18.2477 21.7904 18.1246 21.9298 17.4552L22 17.1476C22.1363 16.5456 22.2047 16.2403 22.1016 15.9917C21.9926 15.7131 21.731 15.6458 21.4908 15.6458ZM23.9625 16.2761C23.6919 16.3284 23.5193 16.3634 23.3477 16.3859C23.1776 16.4134 23.0118 16.4383 22.7502 16.4749L22.7295 16.4938L22.7105 16.509C22.6833 16.7052 22.6643 16.8749 22.6281 17.0743C22.5975 17.2806 22.5504 17.515 22.4737 17.8517C22.4143 18.1095 22.3837 18.1993 22.3499 18.29C22.3169 18.3807 22.2806 18.4688 22.2138 18.7223L22.2295 18.7458L22.2426 18.7673C22.487 18.7556 22.6469 18.7473 22.8113 18.7458C22.9755 18.7398 23.1455 18.7458 23.4088 18.7473L23.4318 18.7283L23.4565 18.7074C23.4945 18.4788 23.5002 18.4173 23.5235 18.3058C23.5465 18.1861 23.5862 18.0205 23.6836 17.5782C23.7297 17.3704 23.781 17.1633 23.8288 16.9513C23.8784 16.7401 23.9304 16.5322 23.9798 16.3244L23.9724 16.2993L23.9625 16.2761ZM23.9683 15.4263C23.7223 15.28 23.2907 15.3264 23.0002 15.5284C22.7106 15.7264 22.6776 16.0074 22.9227 16.1556C23.1644 16.2977 23.5977 16.2554 23.8857 16.0517C24.1747 15.8494 24.2108 15.571 23.9683 15.4263ZM25.4555 18.8131C25.953 18.8131 26.463 18.6749 26.8469 18.265C27.1422 17.9325 27.2776 17.4378 27.3245 17.234C27.4773 16.5588 27.3584 16.2436 27.209 16.0516C26.9821 15.7589 26.5811 15.665 26.1651 15.665C25.915 15.665 25.3192 15.6899 24.8538 16.1222C24.5196 16.4341 24.3651 16.8573 24.272 17.263C24.1779 17.6764 24.0698 18.4206 24.749 18.6975C24.9586 18.7882 25.2607 18.8131 25.4555 18.8131ZM25.4166 17.2939C25.5313 16.7826 25.6667 16.3534 26.0124 16.3534C26.2832 16.3534 26.3029 16.6727 26.1824 17.1857C26.1609 17.2996 26.062 17.723 25.9283 17.9033C25.8349 18.0363 25.7244 18.117 25.6023 18.117C25.566 18.117 25.3498 18.117 25.3465 17.7937C25.3448 17.634 25.3771 17.471 25.4166 17.2939ZM28.5683 18.7473L28.6072 18.7075C28.6623 18.4131 28.6714 18.344 28.7935 17.7479C28.8545 17.4652 28.9809 16.8441 29.0402 16.6229C29.1526 16.5703 29.2614 16.5188 29.3705 16.5188C29.6204 16.5188 29.59 16.74 29.58 16.8281C29.571 16.9763 29.4793 17.4593 29.3836 17.8742L29.3242 18.1419C29.2788 18.3399 29.2293 18.5319 29.1856 18.7282L29.2046 18.7674C29.7155 18.7399 29.8648 18.7399 30.3021 18.7473L30.355 18.7075C30.4317 18.2475 30.4524 18.1245 30.596 17.4552L30.6645 17.1474C30.8014 16.5454 30.8707 16.2404 30.7693 15.9918C30.6571 15.7131 30.3938 15.6459 30.157 15.6459C30 15.6459 29.7121 15.684 29.4562 15.8113C29.3648 15.8596 29.2731 15.9151 29.1831 15.9709L29.2614 15.665L29.2194 15.6133C28.6739 15.7248 28.5493 15.7397 28.0458 15.8113L28.0072 15.8396C27.9461 16.3285 27.8965 16.6959 27.6795 17.6572C27.5969 18.0115 27.5111 18.3691 27.4253 18.7224L27.4484 18.7674C27.9657 18.7399 28.1202 18.7399 28.5683 18.7473ZM32.3215 18.7672C32.3537 18.6093 32.5444 17.6731 32.5461 17.6731C32.5461 17.6731 32.7086 16.9862 32.7185 16.9613C32.7185 16.9613 32.7696 16.8898 32.8208 16.8614H32.896C33.6056 16.8614 34.407 16.8614 35.0351 16.3959C35.4624 16.0766 35.7546 15.6051 35.885 15.0321C35.9188 14.8916 35.9437 14.7245 35.9437 14.5574C35.9437 14.3379 35.9 14.1208 35.7736 13.9511C35.4534 13.4996 34.8155 13.4913 34.0793 13.4879C34.077 13.4879 33.7163 13.4913 33.7163 13.4913C32.7739 13.503 32.3959 13.4996 32.2406 13.4805C32.2275 13.5497 32.2028 13.6727 32.2028 13.6727C32.2028 13.6727 31.8652 15.2492 31.8652 15.2517C31.8652 15.2517 31.0573 18.6035 31.0193 18.7615C31.8422 18.7515 32.1796 18.7515 32.3215 18.7672ZM32.9471 15.9668C32.9471 15.9668 33.306 14.3935 33.3044 14.3994L33.316 14.3187L33.321 14.2572L33.4645 14.2721C33.4645 14.2721 34.2048 14.3362 34.2221 14.3379C34.5143 14.4518 34.6347 14.7453 34.5506 15.1285C34.4739 15.4787 34.2485 15.7731 33.9589 15.9152C33.7203 16.0357 33.4282 16.0457 33.1271 16.0457H32.9323L32.9471 15.9668ZM35.182 17.323C35.0871 17.7304 34.9781 18.4746 35.6539 18.7398C35.8694 18.8322 36.0625 18.8597 36.2588 18.8497C36.4661 18.8384 36.6581 18.7337 36.836 18.583C36.8199 18.6449 36.8039 18.7069 36.7878 18.769L36.8184 18.8088C37.3046 18.7882 37.4554 18.7882 37.9821 18.7922L38.0298 18.7556C38.1068 18.3001 38.1792 17.8577 38.3791 16.9862C38.4765 16.5688 38.5736 16.1554 38.6736 15.7397L38.6579 15.6939C38.1141 15.7955 37.9688 15.8172 37.4457 15.8919L37.406 15.9245C37.4007 15.9668 37.3952 16.0075 37.3901 16.0481C37.3088 15.9157 37.1909 15.8027 37.009 15.7322C36.7764 15.6401 36.2301 15.7589 35.7604 16.1897C35.4304 16.4973 35.272 16.9188 35.182 17.323ZM36.3241 17.3479C36.4405 16.8458 36.5742 16.4209 36.9207 16.4209C37.1398 16.4209 37.2551 16.6246 37.2317 16.972C37.2131 17.0586 37.193 17.1499 37.1691 17.2532C37.1345 17.4024 37.0969 17.5503 37.0603 17.6985C37.0232 17.7998 36.9799 17.8954 36.9323 17.959C36.8432 18.0863 36.631 18.1653 36.5089 18.1653C36.4743 18.1653 36.2605 18.1653 36.2531 17.8477C36.2514 17.6896 36.2837 17.5267 36.3241 17.3479ZM42.2883 15.6899L42.2462 15.6415C41.7081 15.7514 41.6107 15.7688 41.1164 15.8361L41.08 15.8727C41.0783 15.8787 41.0768 15.8878 41.0743 15.8961L41.0726 15.8878C40.7046 16.7433 40.7154 16.5588 40.4158 17.2323C40.4141 17.2016 40.4141 17.1825 40.4124 17.1499L40.3374 15.6899L40.2903 15.6415C39.7266 15.7514 39.7133 15.7688 39.1928 15.8361L39.1522 15.8727C39.1465 15.8902 39.1465 15.9093 39.1431 15.9302L39.1465 15.9376C39.2116 16.2727 39.1959 16.198 39.2612 16.7267C39.2916 16.9862 39.3322 17.2472 39.3626 17.5035C39.414 17.9324 39.4427 18.1436 39.5054 18.7982C39.1539 19.3827 39.0707 19.6039 38.7322 20.1169L38.7345 20.122L38.4962 20.5017C38.469 20.5417 38.4443 20.5692 38.4096 20.5809C38.3716 20.5999 38.3221 20.6033 38.2535 20.6033H38.1214L37.9252 21.261L38.5985 21.2727C38.9938 21.271 39.2422 21.0848 39.3759 20.8344L39.7993 20.1035H39.7926L39.8371 20.0519C40.1219 19.4342 42.2883 15.6899 42.2883 15.6899ZM35.1819 24.3286H34.8963L35.9535 20.8054H36.3042L36.4155 20.4424L36.4263 20.846C36.4132 21.0955 36.608 21.3167 37.1197 21.2801H37.7114L37.9151 20.6017H37.6924C37.5644 20.6017 37.505 20.5691 37.5124 20.4993L37.5017 20.0887H36.4058V20.0908C36.0515 20.0982 34.9935 20.1251 34.7793 20.1825C34.52 20.2498 34.2469 20.4478 34.2469 20.4478L34.3542 20.0844H33.3291L33.1155 20.8054L32.0442 24.3824H31.8363L31.6325 25.0559H33.6741L33.6057 25.2805H34.6117L34.6785 25.0559H34.9608L35.1819 24.3286ZM34.3443 21.5213C34.1801 21.567 33.8746 21.7058 33.8746 21.7058L34.1463 20.8054H34.9608L34.7643 21.4614C34.7643 21.4614 34.5127 21.4763 34.3443 21.5213ZM34.3599 22.8076C34.3599 22.8076 34.1041 22.84 33.9357 22.8783C33.7698 22.929 33.4589 23.0886 33.4589 23.0886L33.7394 22.1516H34.5581L34.3599 22.8076ZM33.9036 24.3369H33.0866L33.3234 23.5461H34.1379L33.9036 24.3369ZM35.871 22.1516H37.0486L36.8794 22.7037H35.6862L35.507 23.3074H36.5511L35.7605 24.429C35.7052 24.5114 35.6555 24.5406 35.6004 24.5638C35.545 24.5921 35.4724 24.6253 35.3883 24.6253H35.0986L34.8996 25.2865H35.6572C36.051 25.2865 36.2836 25.1059 36.4554 24.869L36.9975 24.1214L37.1139 24.8805C37.1386 25.0227 37.24 25.1059 37.3087 25.1383C37.3845 25.1766 37.4629 25.2424 37.5736 25.2522C37.6923 25.2573 37.7781 25.2613 37.8352 25.2613H38.2074L38.4309 24.5214H38.2841C38.1998 24.5214 38.0547 24.5072 38.03 24.4805C38.0052 24.4482 38.0052 24.3984 37.9919 24.3226L37.8738 23.5618H37.3902L37.6024 23.3074H38.7933L38.9764 22.7037H37.8738L38.0456 22.1516H39.1448L39.3487 21.4706H36.0715L35.871 22.1516ZM25.9249 24.4906L26.1998 23.5693H27.3295L27.5359 22.8841H26.4052L26.5778 22.317H27.6827L27.8874 21.6535H25.1228L24.9223 22.317H25.5504L25.3828 22.8841H24.753L24.5443 23.581H25.1722L24.8059 24.7999C24.7564 24.9613 24.8291 25.0228 24.8752 25.0977C24.9223 25.1707 24.97 25.219 25.0773 25.2465C25.1881 25.2714 25.2639 25.2863 25.367 25.2863H26.6405L26.8674 24.5272L26.3029 24.6053C26.1939 24.6053 25.892 24.5921 25.9249 24.4906ZM26.0545 20.0803L25.7683 20.6016C25.707 20.7154 25.6518 20.7861 25.6022 20.8187C25.5585 20.8461 25.4718 20.8576 25.3464 20.8576H25.197L24.9973 21.5246H25.4934C25.7319 21.5246 25.9151 21.4364 26.0025 21.3924C26.0966 21.3417 26.1213 21.3707 26.194 21.3L26.3615 21.1537H27.9105L28.1161 20.4594H26.9822L27.1801 20.0803H26.0545ZM28.3414 24.504C28.3149 24.4657 28.334 24.3982 28.3743 24.2577L28.7977 22.8458H30.3038C30.5233 22.8426 30.6818 22.84 30.7849 22.8326C30.8956 22.8209 31.016 22.781 31.1472 22.7095C31.2826 22.6346 31.3519 22.5556 31.4104 22.4649C31.4757 22.3745 31.5805 22.1765 31.6705 21.8713L32.2027 20.0844L30.6397 20.0936C30.6397 20.0936 30.1585 20.1651 29.9466 20.2441C29.7328 20.3322 29.4273 20.5783 29.4273 20.5783L29.5684 20.0885H28.6029L27.2512 24.6053C27.2033 24.7807 27.1711 24.908 27.1638 24.9844C27.1612 25.0668 27.2669 25.1483 27.3353 25.2099C27.4162 25.2714 27.5358 25.2614 27.6505 25.2714C27.7711 25.2805 27.9427 25.2863 28.1795 25.2863H28.9215L29.1492 24.5114L28.485 24.5747C28.414 24.5747 28.3627 24.5364 28.3414 24.504ZM29.0709 21.8921H30.6528L30.5523 22.2097C30.5381 22.2172 30.5043 22.194 30.3433 22.2131H28.9735L29.0709 21.8921ZM29.3878 20.8269H30.983L30.8683 21.2095C30.8683 21.2095 30.1164 21.202 29.996 21.2244C29.4661 21.3167 29.1566 21.602 29.1566 21.602L29.3878 20.8269ZM30.5877 23.2733C30.5746 23.3207 30.5539 23.3497 30.5249 23.3714C30.4928 23.3923 30.4408 23.3997 30.3633 23.3997H30.1379L30.1512 23.0129H29.2136L29.1756 24.9038C29.1741 25.0403 29.1872 25.1193 29.2863 25.1825C29.3854 25.2614 29.6906 25.2714 30.1015 25.2714H30.6891L30.9012 24.5637L30.3897 24.592L30.2196 24.602C30.1964 24.592 30.1742 24.5828 30.1495 24.5579C30.128 24.5364 30.0916 24.5496 30.0975 24.4132L30.1015 23.9285L30.638 23.9061C30.9276 23.9061 31.0514 23.8112 31.157 23.7207C31.2578 23.6341 31.2908 23.5345 31.3288 23.3997L31.4188 22.9706H30.6817L30.5877 23.2733Z"
          fill="#FEFEFE"/>
</svg>
