<svg width="50" height="50" viewBox="0 0 50 50" fill="none" xmlns="http://www.w3.org/2000/svg">
    <g clip-path="url(#clip0_645_5625)">
        <path d="M25.0638 50C38.8275 50 49.9851 38.8071 49.9851 25C49.9851 11.1929 38.8275 0 25.0638 0C11.3001 0 0.142456 11.1929 0.142456 25C0.142456 38.8071 11.3001 50 25.0638 50Z"
              fill="#F0F0F0"/>
        <path d="M23.9806 24.9998H49.9854C49.9854 22.7434 49.6856 20.5574 49.1269 18.478H23.9806V24.9998Z"
              fill="#D80027"/>
        <path d="M23.9806 11.9563H46.3276C44.8021 9.45908 42.8515 7.25176 40.5772 5.43457H23.9806V11.9563Z"
              fill="#D80027"/>
        <path d="M25.064 49.9997C30.9292 49.9997 36.3201 47.9661 40.5772 44.5649H9.5509C13.808 47.9661 19.1989 49.9997 25.064 49.9997Z"
              fill="#D80027"/>
        <path d="M3.80049 38.0433H46.3276C47.5523 36.0385 48.5021 33.8471 49.1268 31.5215H1.00122C1.62591 33.8471 2.57574 36.0385 3.80049 38.0433V38.0433Z"
              fill="#D80027"/>
        <path d="M11.6865 3.9041H13.9575L11.8451 5.44365L12.652 7.93477L10.5396 6.39521L8.42724 7.93477L9.12426 5.78271C7.26431 7.33691 5.6341 9.15781 4.29069 11.1867H5.01837L3.67369 12.1667C3.4642 12.5173 3.26327 12.8734 3.07071 13.2349L3.71283 15.2174L2.51485 14.3442C2.21706 14.9771 1.94468 15.6243 1.69984 16.285L2.40728 18.4693H5.01837L2.9059 20.0089L3.71283 22.5L1.60045 20.9604L0.33511 21.8827C0.208459 22.904 0.142456 23.9442 0.142456 25H25.0638C25.0638 11.193 25.0638 9.56523 25.0638 0C20.1407 0 15.5513 1.43262 11.6865 3.9041V3.9041ZM12.652 22.5L10.5396 20.9604L8.42724 22.5L9.23416 20.0089L7.12169 18.4693H9.73279L10.5396 15.9782L11.3464 18.4693H13.9575L11.8451 20.0089L12.652 22.5ZM11.8451 12.7263L12.652 15.2174L10.5396 13.6778L8.42724 15.2174L9.23416 12.7263L7.12169 11.1867H9.73279L10.5396 8.69561L11.3464 11.1867H13.9575L11.8451 12.7263ZM21.5912 22.5L19.4788 20.9604L17.3664 22.5L18.1733 20.0089L16.0609 18.4693H18.6719L19.4788 15.9782L20.2856 18.4693H22.8967L20.7842 20.0089L21.5912 22.5ZM20.7842 12.7263L21.5912 15.2174L19.4788 13.6778L17.3664 15.2174L18.1733 12.7263L16.0609 11.1867H18.6719L19.4788 8.69561L20.2856 11.1867H22.8967L20.7842 12.7263ZM20.7842 5.44365L21.5912 7.93477L19.4788 6.39521L17.3664 7.93477L18.1733 5.44365L16.0609 3.9041H18.6719L19.4788 1.41299L20.2856 3.9041H22.8967L20.7842 5.44365Z"
              fill="#0052B4"/>
    </g>
    <defs>
        <clipPath id="clip0_645_5625">
            <rect width="49.8427" height="50" fill="white" transform="translate(0.1427)"/>
        </clipPath>
    </defs>
</svg>
