<svg width="55" height="38" viewBox="0 0 55 38" fill="none" xmlns="http://www.w3.org/2000/svg">
    <rect x="0.5" y="0.5" width="54" height="37" rx="5.5" fill="white" stroke="#D9D9D9"/>
    <path fill-rule="evenodd" clip-rule="evenodd"
          d="M16.6968 25.7419H13.3649L10.8664 16.1376C10.7478 15.6958 10.496 15.3052 10.1256 15.1211C9.20122 14.6585 8.18263 14.2904 7.07144 14.1047V13.7349H12.4389C13.1797 13.7349 13.7353 14.2904 13.8279 14.9355L15.1243 21.8634L18.4546 13.7349H21.6939L16.6968 25.7419ZM23.5459 25.7419H20.3992L22.9903 13.7349H26.1371L23.5459 25.7419ZM30.2082 17.0612C30.3008 16.4145 30.8563 16.0448 31.5045 16.0448C32.5231 15.9519 33.6327 16.1376 34.5587 16.5986L35.1143 14.0135C34.1883 13.6437 33.1697 13.458 32.2453 13.458C29.1912 13.458 26.9688 15.1212 26.9688 17.4294C26.9688 19.1854 28.543 20.1074 29.6542 20.6628C30.8563 21.2167 31.3193 21.5864 31.2267 22.1403C31.2267 22.9711 30.3008 23.3408 29.3764 23.3408C28.2652 23.3408 27.154 23.0639 26.1371 22.6013L25.5815 25.1881C26.6926 25.6491 27.8948 25.8348 29.006 25.8348C32.4305 25.926 34.5587 24.2644 34.5587 21.7705C34.5587 18.6299 30.2082 18.4458 30.2082 17.0612ZM45.5714 25.7419L43.0729 13.7349H40.3892C39.8336 13.7349 39.278 14.1047 39.0928 14.6585L34.4661 25.7419H37.7054L38.352 23.9875H42.3321L42.7025 25.7419H45.5714ZM40.8521 16.9684L41.7765 21.4936H39.1854L40.8521 16.9684Z"
          fill="#172B85"/>
</svg>
